<?xml version="1.0" encoding="utf-8"?>
<!-- Generator: Adobe Illustrator 16.0.0, SVG Export Plug-In . SVG Version: 6.00 Build 0)  -->
<!DOCTYPE svg PUBLIC "-//W3C//DTD SVG 1.1//EN" "http://www.w3.org/Graphics/SVG/1.1/DTD/svg11.dtd">
<svg version="1.1" id="Layer_1" xmlns="http://www.w3.org/2000/svg" xmlns:xlink="http://www.w3.org/1999/xlink" x="0px" y="0px"
	 width="562px" height="126.593px" viewBox="0 0 562 126.593" enable-background="new 0 0 562 126.593" xml:space="preserve">
<path fill="#FFFFFF" d="M211.022,110.294v9.697c0,1.812-0.539,3.329-1.602,4.508c-1.075,1.187-2.537,1.789-4.349,1.789
	s-3.275-0.603-4.347-1.789c-1.064-1.178-1.604-2.694-1.604-4.508v-9.697c0-0.187,0.152-0.338,0.339-0.338h1.911
	c0.187,0,0.339,0.151,0.339,0.338v9.047c0,3.015,1.1,4.479,3.362,4.479c2.262,0,3.362-1.465,3.362-4.479v-9.047
	c0-0.187,0.152-0.338,0.339-0.338h1.911C210.87,109.957,211.022,110.108,211.022,110.294z M237.235,109.957h-1.911
	c-0.187,0-0.339,0.151-0.339,0.338v10.479l-10.921-11.443c-0.094-0.099-0.24-0.131-0.371-0.082
	c-0.128,0.053-0.213,0.176-0.213,0.315v16.062c0,0.187,0.152,0.338,0.339,0.338h1.911c0.187,0,0.339-0.151,0.339-0.338v-10.58
	l10.921,11.443c0.065,0.068,0.154,0.105,0.245,0.105c0.042,0,0.085-0.008,0.126-0.024c0.128-0.052,0.213-0.176,0.213-0.315v-15.959
	C237.574,110.108,237.422,109.957,237.235,109.957z M262.582,117.878c0,2.602-0.855,4.625-2.54,6.016
	c-1.67,1.373-3.844,2.068-6.458,2.068h-3.11c-0.187,0-0.339-0.151-0.339-0.338v-15.33c0-0.187,0.152-0.338,0.339-0.338h3.171
	c2.547,0,4.69,0.686,6.372,2.035C261.719,113.362,262.582,115.341,262.582,117.878z M259.996,117.958
	c0-1.025-0.184-1.918-0.545-2.654c-0.357-0.727-0.86-1.301-1.494-1.703c-0.656-0.418-1.391-0.729-2.187-0.923
	c-0.799-0.196-1.713-0.296-2.715-0.296h-0.331v11.154h0.331c0.995,0,1.913-0.099,2.727-0.295c0.797-0.193,1.531-0.507,2.181-0.93
	c0.631-0.414,1.132-0.991,1.488-1.715C259.812,119.859,259.996,118.973,259.996,117.958z M159.833,37.438l32.263,31.79h-8.555
	L152.639,37.84h-13.796v31.388h-6.302V1.793h20.194c5.126,0,9.777,0.281,13.821,0.835c3.981,0.546,7.801,1.498,11.353,2.829
	c3.312,1.245,5.875,3.069,7.618,5.422c1.715,2.318,2.584,5.214,2.584,8.606c0,4.816-2.063,8.871-6.132,12.053
	c-4.253,3.326-10.163,5.224-17.566,5.641L159.833,37.438z M153.125,32.773c3.746,0,7.095-0.137,9.95-0.408
	c2.909-0.275,5.813-0.79,8.635-1.532c3.076-0.811,5.49-2.111,7.177-3.864c1.798-1.87,2.71-4.217,2.71-6.977
	c0-2.347-0.648-4.403-1.927-6.111c-1.194-1.593-2.682-2.861-4.425-3.771c-1.66-0.864-3.864-1.535-6.552-1.995
	c-2.567-0.436-5.048-0.712-7.375-0.822c-2.273-0.107-5.075-0.162-8.331-0.162h-14.145v25.642H153.125z M58.416,40.987h32.628
	l-0.179,2.197c-0.479,5.984-4.895,11.187-13.32,15.462c-7.989,4.052-17.047,6.105-26.921,6.105c-11.687,0-22.78-3.113-31.234-8.77
	c-8.272-5.533-13.016-12.899-13.016-20.21c0-8.2,4.547-15.289,13.513-21.068c8.682-5.598,19.306-8.436,31.576-8.436
	c14.246,0,25.055,3.637,34.874,11.766l4.988-4.099C80.721,5.058,67.243,0.56,51.233,0.56c-14.234,0-26.519,3.546-36.514,10.539
	C4.952,17.932,0,26.209,0,35.7c0,9.304,4.929,17.468,14.65,24.268c9.949,6.961,22.029,10.491,35.905,10.491
	c6.899,0,13.695-1.021,20.202-3.037c6.451-2.002,11.942-4.842,16.32-8.447c4.038-3.296,6.748-6.768,8.06-10.324
	c1.171-3.18,1.765-7.085,1.764-11.605l0.004-1.129H58.416V40.987z M159.51,109.957h-7.42c-0.187,0-0.339,0.151-0.339,0.338v15.33
	c0,0.187,0.152,0.338,0.339,0.338h1.911c0.187,0,0.339-0.151,0.339-0.338v-7.184h4.987c0.187,0,0.339-0.152,0.339-0.339v-1.749
	c0-0.188-0.152-0.339-0.339-0.339h-4.987v-3.632h5.17c0.187,0,0.339-0.152,0.339-0.34v-1.748
	C159.849,110.108,159.697,109.957,159.51,109.957z M185.085,112.078c1.639,1.623,2.47,3.603,2.47,5.881
	c0,2.346-0.821,4.344-2.438,5.935c-1.619,1.59-3.615,2.396-5.932,2.396c-2.316,0-4.311-0.806-5.928-2.394
	c-1.619-1.59-2.439-3.587-2.439-5.935c0-2.278,0.83-4.258,2.467-5.883c1.639-1.623,3.624-2.445,5.901-2.445
	C181.465,109.63,183.45,110.455,185.085,112.078z M184.966,117.958c0-1.623-0.553-3.021-1.645-4.155
	c-1.085-1.132-2.477-1.706-4.136-1.706c-1.657,0-3.05,0.574-4.136,1.706c-1.091,1.133-1.643,2.532-1.643,4.155
	c0,1.658,0.559,3.02,1.709,4.162c1.134,1.129,2.504,1.7,4.07,1.7c1.568,0,2.937-0.571,4.07-1.7
	C184.406,120.976,184.966,119.615,184.966,117.958z M366.048,118.896c0.454,0.721,0.684,1.546,0.684,2.458
	c0,1.476-0.507,2.683-1.505,3.586c-0.989,0.896-2.213,1.349-3.635,1.349c-1.42,0-2.642-0.453-3.632-1.349
	c-0.998-0.901-1.504-2.106-1.504-3.586c0-0.916,0.229-1.743,0.683-2.458c0.346-0.545,0.804-0.973,1.366-1.279
	c-1.092-0.81-1.644-1.943-1.644-3.379c0-1.324,0.463-2.435,1.377-3.304c0.908-0.866,2.037-1.304,3.354-1.304
	c1.317,0,2.446,0.438,3.354,1.304c0.913,0.868,1.377,1.979,1.377,3.304c0,1.436-0.552,2.569-1.642,3.379
	C365.245,117.921,365.703,118.35,366.048,118.896z M359.33,114.238c0,0.523,0.238,1.021,0.727,1.521
	c0.979,1.003,2.106,0.998,3.073,0c0.488-0.498,0.728-0.997,0.728-1.521c0-0.643-0.223-1.177-0.681-1.629
	c-0.462-0.453-0.979-0.674-1.583-0.674s-1.121,0.221-1.58,0.674C359.553,113.064,359.33,113.596,359.33,114.238z M364.224,121.354
	c0-0.707-0.258-1.294-0.789-1.796c-0.536-0.506-1.141-0.752-1.842-0.752c-0.703,0-1.304,0.246-1.84,0.752
	c-0.531,0.502-0.789,1.089-0.789,1.796c0,0.67,0.265,1.248,0.812,1.769c1.1,1.051,2.54,1.049,3.637,0
	C363.96,122.599,364.224,122.021,364.224,121.354z M449.185,69.227h6.304V1.793h-6.304V69.227z M344.402,14.758
	c8.491-5.591,18.777-8.425,30.57-8.425c14.491,0,26.653,3.936,36.174,11.705l4.992-4.101C405.538,5.06,392.064,0.562,376.058,0.562
	c-14.144,0-26.405,3.561-36.446,10.585c-9.812,6.865-14.786,15.158-14.786,24.648c0,9.355,5.014,17.517,14.901,24.256
	c10.133,6.908,22.356,10.41,36.33,10.41c16.005,0,29.479-4.498,40.081-13.375l-4.992-4.102
	c-9.457,7.719-21.527,11.656-35.893,11.706h-0.281c-11.771-0.045-22.028-2.879-30.496-8.424
	c-8.81-5.768-13.276-12.751-13.276-20.755C331.2,27.508,335.642,20.526,344.402,14.758z M283.011,109.957h-8.235
	c-0.187,0-0.339,0.151-0.339,0.338v15.33c0,0.187,0.152,0.338,0.339,0.338h8.235c0.188,0,0.339-0.151,0.339-0.338v-1.748
	c0-0.188-0.152-0.34-0.339-0.34h-5.985v-5.117h5.8c0.188,0,0.339-0.151,0.339-0.338v-1.748c0-0.188-0.151-0.34-0.339-0.34h-5.8
	v-3.611h5.985c0.188,0,0.339-0.151,0.339-0.338v-1.748C283.35,110.108,283.197,109.957,283.011,109.957z M409.566,118.896
	c0.452,0.715,0.683,1.542,0.683,2.458c0,1.478-0.506,2.685-1.504,3.586c-0.99,0.896-2.212,1.349-3.632,1.349
	c-1.422,0-2.646-0.453-3.635-1.349c-0.998-0.903-1.505-2.11-1.505-3.586c0-0.912,0.229-1.737,0.683-2.457
	c0.347-0.547,0.805-0.976,1.367-1.28c-1.09-0.81-1.642-1.943-1.642-3.379c0-1.324,0.463-2.435,1.377-3.304
	c0.908-0.866,2.037-1.304,3.354-1.304c1.316,0,2.445,0.438,3.354,1.304c0.913,0.868,1.377,1.979,1.377,3.304
	c0,1.436-0.552,2.569-1.644,3.379C408.762,117.923,409.22,118.35,409.566,118.896z M402.85,114.238c0,0.524,0.238,1.023,0.728,1.521
	c0.97,0.998,2.094,1.003,3.073,0c0.487-0.502,0.727-0.998,0.727-1.521c0-0.642-0.224-1.174-0.683-1.629
	c-0.459-0.453-0.976-0.674-1.58-0.674c-0.606,0-1.124,0.221-1.583,0.674C403.072,113.061,402.85,113.595,402.85,114.238z
	 M407.742,121.354c0-0.707-0.258-1.294-0.789-1.796c-0.536-0.506-1.137-0.752-1.84-0.752c-0.701,0-1.306,0.246-1.845,0.753
	c-0.528,0.5-0.787,1.088-0.787,1.795c0,0.667,0.265,1.245,0.811,1.769c1.097,1.049,2.537,1.051,3.637,0
	C407.477,122.602,407.742,122.023,407.742,121.354z M562,7.891V1.793h-69.626v67.434H562v-6.098h-63.296V34.734h58.01v-5.683h-58.01
	V7.891H562z M307.677,117.878c0,2.602-0.854,4.625-2.54,6.016c-1.67,1.373-3.844,2.068-6.457,2.068h-3.111
	c-0.187,0-0.338-0.151-0.338-0.338v-15.33c0-0.187,0.151-0.338,0.338-0.338h3.172c2.547,0,4.689,0.686,6.371,2.035
	C306.814,113.362,307.677,115.341,307.677,117.878z M305.091,117.958c0-1.025-0.184-1.918-0.545-2.654
	c-0.356-0.727-0.86-1.301-1.494-1.703c-0.655-0.418-1.391-0.729-2.187-0.923c-0.799-0.196-1.713-0.296-2.715-0.296h-0.332v11.154
	h0.332c0.994,0,1.912-0.099,2.727-0.295c0.797-0.193,1.531-0.507,2.182-0.93c0.631-0.414,1.131-0.991,1.487-1.715
	C304.907,119.859,305.091,118.973,305.091,117.958z M300.04,69.227l-12.283-18.893h-53.27l-12.578,18.893h-7.127L261.387,0
	l45.393,69.227H300.04z M284.465,45.258l-23.02-35.407l-23.571,35.407H284.465z M387.248,111.177
	c1.097,1.031,1.653,2.273,1.653,3.693c0,1.274-0.584,2.703-1.735,4.246l-5.224,7.035c-0.068,0.09-0.169,0.137-0.273,0.137
	c-0.066,0-0.134-0.021-0.193-0.061l-1.382-0.956c-0.075-0.054-0.126-0.134-0.142-0.224c-0.015-0.092,0.008-0.184,0.062-0.258
	l3.539-4.771c-0.218,0.03-0.453,0.046-0.704,0.046c-1.342,0-2.49-0.516-3.415-1.535c-0.912-1.006-1.377-2.191-1.377-3.521
	c0-1.483,0.532-2.766,1.583-3.809c1.052-1.043,2.335-1.57,3.817-1.57C384.884,109.63,386.159,110.151,387.248,111.177z
	 M386.392,114.889c0-0.743-0.277-1.394-0.851-1.992c-0.568-0.593-1.202-0.881-1.939-0.881c-0.839,0-1.541,0.282-2.146,0.862
	c-0.6,0.574-0.891,1.231-0.891,2.012c0,0.789,0.294,1.451,0.899,2.021c0.609,0.572,1.269,0.852,2.016,0.852
	c0.857,0,1.543-0.278,2.093-0.852C386.125,116.335,386.392,115.673,386.392,114.889z M342.207,109.957h-3.436
	c-0.119,0-0.229,0.062-0.29,0.162l-1.06,1.748c-0.063,0.105-0.064,0.236-0.005,0.344c0.06,0.105,0.173,0.172,0.295,0.172h2.324
	v13.24c0,0.188,0.152,0.34,0.339,0.34h1.832c0.187,0,0.339-0.152,0.339-0.34v-15.328
	C342.546,110.108,342.394,109.957,342.207,109.957z"/>
</svg>
