<?xml version="1.0" encoding="utf-8"?>
<!-- Generator: Adobe Illustrator 17.0.0, SVG Export Plug-In . SVG Version: 6.00 Build 0)  -->
<!DOCTYPE svg PUBLIC "-//W3C//DTD SVG 1.1//EN" "http://www.w3.org/Graphics/SVG/1.1/DTD/svg11.dtd">
<svg version="1.1" id="Layer_1" xmlns="http://www.w3.org/2000/svg" xmlns:xlink="http://www.w3.org/1999/xlink" x="0px" y="0px"
	 width="562px" height="126.593px" viewBox="0 0 562 126.593" enable-background="new 0 0 562 126.593" xml:space="preserve">
<path fill="#414042" d="M211.022,110.295v9.697c0,1.812-0.539,3.329-1.602,4.507c-1.075,1.187-2.537,1.789-4.349,1.789
	s-3.275-0.602-4.347-1.788c-1.064-1.178-1.604-2.695-1.604-4.508v-9.697c0-0.187,0.152-0.339,0.339-0.339h1.911
	c0.187,0,0.339,0.152,0.339,0.339v9.047c0,3.014,1.1,4.479,3.362,4.479s3.362-1.465,3.362-4.479v-9.047
	c0-0.187,0.152-0.339,0.339-0.339h1.911C210.87,109.956,211.022,110.108,211.022,110.295z M237.235,109.956h-1.911
	c-0.187,0-0.339,0.152-0.339,0.339v10.478l-10.921-11.444c-0.094-0.098-0.24-0.13-0.371-0.081c-0.128,0.052-0.213,0.176-0.213,0.315
	v16.061c0,0.187,0.152,0.339,0.339,0.339h1.911c0.187,0,0.339-0.152,0.339-0.339v-10.58l10.921,11.444
	c0.065,0.068,0.154,0.105,0.245,0.105c0.042,0,0.085-0.008,0.126-0.024c0.128-0.052,0.213-0.176,0.213-0.315v-15.959
	C237.574,110.108,237.422,109.956,237.235,109.956z M262.582,117.878c0,2.602-0.855,4.626-2.54,6.016
	c-1.67,1.373-3.844,2.069-6.458,2.069h-3.11c-0.187,0-0.339-0.152-0.339-0.339v-15.329c0-0.187,0.152-0.339,0.339-0.339h3.171
	c2.547,0,4.69,0.686,6.372,2.036C261.719,113.362,262.582,115.342,262.582,117.878z M259.996,117.959
	c0-1.026-0.184-1.919-0.545-2.655c-0.357-0.727-0.86-1.3-1.494-1.703c-0.656-0.418-1.391-0.729-2.187-0.923
	c-0.799-0.196-1.713-0.295-2.715-0.295h-0.331v11.154h0.331c0.995,0,1.913-0.099,2.727-0.295c0.797-0.193,1.531-0.507,2.181-0.93
	c0.631-0.414,1.132-0.991,1.488-1.715C259.812,119.859,259.996,118.973,259.996,117.959z M159.833,37.438l32.263,31.79h-8.555
	l-30.902-31.388h-13.796v31.388h-6.302V1.793h20.194c5.126,0,9.777,0.281,13.821,0.835c3.981,0.546,7.801,1.498,11.353,2.829
	c3.312,1.245,5.875,3.069,7.618,5.422c1.715,2.318,2.584,5.214,2.584,8.606c0,4.816-2.063,8.871-6.132,12.053
	c-4.253,3.326-10.163,5.224-17.566,5.641L159.833,37.438z M153.125,32.773c3.746,0,7.095-0.137,9.95-0.408
	c2.909-0.275,5.813-0.79,8.635-1.532c3.076-0.811,5.49-2.111,7.177-3.864c1.798-1.87,2.71-4.217,2.71-6.977
	c0-2.347-0.648-4.403-1.927-6.111c-1.194-1.593-2.682-2.861-4.425-3.771c-1.66-0.864-3.864-1.535-6.552-1.995
	c-2.567-0.436-5.048-0.712-7.375-0.822c-2.273-0.107-5.075-0.162-8.331-0.162h-14.145v25.642H153.125z M58.416,40.987h32.628
	l-0.179,2.197c-0.479,5.984-4.895,11.187-13.32,15.462c-7.989,4.052-17.047,6.106-26.921,6.106c-11.687,0-22.78-3.114-31.234-8.77
	c-8.272-5.533-13.016-12.899-13.016-20.21c0-8.2,4.547-15.289,13.513-21.068c8.682-5.598,19.306-8.436,31.576-8.436
	c14.246,0,25.055,3.637,34.874,11.766l4.988-4.099C80.721,5.058,67.243,0.56,51.233,0.56c-14.234,0-26.519,3.546-36.514,10.539
	C4.952,17.932,0,26.209,0,35.7c0,9.304,4.929,17.468,14.65,24.268c9.949,6.961,22.029,10.491,35.905,10.491
	c6.899,0,13.695-1.022,20.202-3.038c6.451-2.001,11.942-4.842,16.32-8.447c4.038-3.296,6.748-6.768,8.06-10.324
	c1.171-3.18,1.765-7.085,1.764-11.605l0.004-1.129H58.416V40.987z M159.51,109.956h-7.42c-0.187,0-0.339,0.152-0.339,0.339v15.329
	c0,0.187,0.152,0.339,0.339,0.339h1.911c0.187,0,0.339-0.152,0.339-0.339v-7.183h4.987c0.187,0,0.339-0.152,0.339-0.339v-1.749
	c0-0.187-0.152-0.339-0.339-0.339h-4.987v-3.632h5.17c0.187,0,0.339-0.152,0.339-0.339v-1.748
	C159.849,110.108,159.697,109.956,159.51,109.956z M185.085,112.077c1.639,1.624,2.47,3.603,2.47,5.882
	c0,2.345-0.821,4.343-2.438,5.934c-1.619,1.59-3.615,2.396-5.932,2.396c-2.316,0-4.311-0.806-5.928-2.394
	c-1.619-1.59-2.439-3.587-2.439-5.935c0-2.278,0.83-4.257,2.467-5.882c1.639-1.623,3.624-2.446,5.901-2.446
	C181.465,109.631,183.45,110.454,185.085,112.077z M184.966,117.959c0-1.623-0.553-3.021-1.645-4.156
	c-1.085-1.132-2.477-1.706-4.136-1.706c-1.657,0-3.05,0.574-4.136,1.706c-1.091,1.133-1.643,2.532-1.643,4.156
	c0,1.657,0.559,3.019,1.709,4.161c1.134,1.129,2.504,1.701,4.07,1.701c1.568,0,2.937-0.572,4.07-1.7
	C184.406,120.976,184.966,119.615,184.966,117.959z M366.048,118.896c0.454,0.72,0.683,1.546,0.683,2.458
	c0,1.476-0.506,2.682-1.504,3.586c-0.99,0.895-2.213,1.349-3.635,1.349c-1.42,0-2.642-0.454-3.632-1.349
	c-0.998-0.901-1.504-2.107-1.504-3.586c0-0.916,0.23-1.743,0.683-2.458c0.345-0.545,0.803-0.973,1.366-1.279
	c-1.092-0.81-1.644-1.944-1.644-3.379c0-1.324,0.463-2.435,1.377-3.304c0.908-0.866,2.037-1.304,3.354-1.304
	c1.317,0,2.446,0.438,3.354,1.304c0.913,0.868,1.377,1.98,1.377,3.304c0,1.436-0.552,2.569-1.641,3.379
	C365.245,117.922,365.703,118.35,366.048,118.896z M359.33,114.238c0,0.523,0.238,1.021,0.727,1.522
	c0.979,1.002,2.106,0.997,3.073,0c0.488-0.499,0.727-0.998,0.727-1.522c0-0.643-0.222-1.177-0.68-1.629
	c-0.462-0.453-0.979-0.674-1.583-0.674c-0.605,0-1.121,0.221-1.58,0.674C359.553,113.064,359.33,113.596,359.33,114.238z
	 M364.224,121.354c0-0.707-0.258-1.294-0.789-1.796c-0.537-0.506-1.141-0.752-1.842-0.752c-0.703,0-1.304,0.246-1.84,0.752
	c-0.531,0.502-0.789,1.089-0.789,1.796c0,0.67,0.265,1.248,0.811,1.768c1.1,1.052,2.54,1.05,3.637,0
	C363.96,122.599,364.224,122.021,364.224,121.354z M449.185,69.227h6.303V1.793h-6.303V69.227z M344.402,14.758
	c8.492-5.591,18.778-8.425,30.571-8.425c14.491,0,26.653,3.936,36.173,11.705l4.993-4.101
	c-10.601-8.877-24.075-13.375-40.081-13.375c-14.144,0-26.406,3.561-36.447,10.585c-9.812,6.865-14.786,15.158-14.786,24.648
	c0,9.355,5.014,17.517,14.902,24.256c10.132,6.907,22.356,10.409,36.33,10.409c16.004,0,29.478-4.498,40.081-13.375l-4.993-4.102
	c-9.457,7.719-21.527,11.656-35.892,11.706h-0.281c-11.771-0.045-22.029-2.879-30.496-8.424
	c-8.81-5.768-13.277-12.751-13.277-20.755C331.2,27.508,335.642,20.526,344.402,14.758z M283.011,109.956h-8.235
	c-0.187,0-0.339,0.152-0.339,0.339v15.329c0,0.187,0.152,0.339,0.339,0.339h8.235c0.187,0,0.339-0.152,0.339-0.339v-1.748
	c0-0.187-0.152-0.339-0.339-0.339h-5.985v-5.117h5.8c0.187,0,0.339-0.152,0.339-0.339v-1.748c0-0.187-0.152-0.339-0.339-0.339h-5.8
	v-3.611h5.985c0.187,0,0.339-0.152,0.339-0.339v-1.748C283.349,110.108,283.197,109.956,283.011,109.956z M409.566,118.896
	c0.453,0.715,0.683,1.542,0.683,2.458c0,1.478-0.506,2.684-1.504,3.586c-0.99,0.895-2.212,1.349-3.632,1.349
	c-1.422,0-2.645-0.454-3.635-1.349c-0.998-0.904-1.504-2.11-1.504-3.586c0-0.912,0.229-1.738,0.682-2.457
	c0.347-0.547,0.805-0.976,1.367-1.28c-1.089-0.81-1.641-1.943-1.641-3.379c0-1.324,0.463-2.435,1.377-3.304
	c0.908-0.866,2.037-1.304,3.354-1.304c1.317,0,2.446,0.438,3.354,1.304c0.913,0.868,1.377,1.98,1.377,3.304
	c0,1.435-0.552,2.569-1.644,3.379C408.762,117.923,409.22,118.35,409.566,118.896z M402.85,114.238c0,0.524,0.238,1.023,0.727,1.522
	c0.97,0.997,2.094,1.002,3.073,0c0.488-0.502,0.727-0.999,0.727-1.522c0-0.642-0.224-1.174-0.683-1.629
	c-0.459-0.453-0.975-0.674-1.58-0.674c-0.606,0-1.124,0.221-1.583,0.674C403.072,113.061,402.85,113.595,402.85,114.238z
	 M407.742,121.354c0-0.707-0.258-1.294-0.789-1.796c-0.536-0.506-1.137-0.752-1.84-0.752c-0.701,0-1.305,0.246-1.844,0.753
	c-0.529,0.5-0.788,1.088-0.788,1.795c0,0.667,0.265,1.245,0.811,1.768c1.097,1.05,2.537,1.052,3.637,0
	C407.477,122.602,407.742,122.023,407.742,121.354z M562,7.891V1.793h-69.626v67.434H562v-6.098h-63.296V34.734h58.01v-5.683h-58.01
	V7.891H562z M307.677,117.878c0,2.602-0.855,4.626-2.54,6.016c-1.67,1.373-3.844,2.069-6.458,2.069h-3.11
	c-0.187,0-0.339-0.152-0.339-0.339v-15.329c0-0.187,0.152-0.339,0.339-0.339h3.171c2.547,0,4.69,0.686,6.372,2.036
	C306.814,113.362,307.677,115.342,307.677,117.878z M305.091,117.959c0-1.026-0.184-1.919-0.545-2.655
	c-0.357-0.727-0.86-1.3-1.494-1.703c-0.656-0.418-1.391-0.729-2.187-0.923c-0.799-0.196-1.713-0.295-2.715-0.295h-0.331v11.154
	h0.331c0.995,0,1.913-0.099,2.727-0.295c0.797-0.193,1.531-0.507,2.181-0.93c0.631-0.414,1.132-0.991,1.488-1.715
	C304.907,119.859,305.091,118.973,305.091,117.959z M300.04,69.227l-12.283-18.893h-53.27l-12.578,18.893h-7.127L261.387,0
	l45.393,69.227H300.04z M284.465,45.258L261.445,9.851l-23.571,35.407H284.465z M387.248,111.177
	c1.097,1.031,1.653,2.274,1.653,3.693c0,1.275-0.584,2.704-1.735,4.247l-5.224,7.035c-0.068,0.089-0.169,0.136-0.273,0.136
	c-0.066,0-0.134-0.02-0.193-0.06l-1.382-0.956c-0.075-0.053-0.126-0.134-0.142-0.224c-0.015-0.091,0.008-0.184,0.062-0.258
	l3.539-4.77c-0.218,0.03-0.453,0.046-0.704,0.046c-1.342,0-2.491-0.516-3.415-1.535c-0.913-1.006-1.377-2.191-1.377-3.521
	c0-1.484,0.532-2.766,1.583-3.809c1.051-1.043,2.335-1.571,3.817-1.571C384.884,109.631,386.159,110.151,387.248,111.177z
	 M386.392,114.889c0-0.743-0.278-1.394-0.851-1.992c-0.568-0.593-1.202-0.881-1.939-0.881c-0.839,0-1.541,0.282-2.146,0.862
	c-0.6,0.574-0.891,1.232-0.891,2.012c0,0.789,0.294,1.451,0.9,2.021c0.609,0.573,1.268,0.852,2.015,0.852
	c0.858,0,1.543-0.278,2.093-0.851C386.125,116.336,386.392,115.674,386.392,114.889z M342.207,109.956h-3.436
	c-0.119,0-0.229,0.062-0.29,0.163l-1.059,1.748c-0.064,0.105-0.065,0.236-0.005,0.343c0.06,0.106,0.173,0.172,0.295,0.172h2.324
	v13.241c0,0.187,0.152,0.339,0.339,0.339h1.832c0.187,0,0.339-0.152,0.339-0.339v-15.329
	C342.546,110.108,342.394,109.956,342.207,109.956z"/>
</svg>
