<svg width="14px" height="20px" viewBox="0 0 14 20" version="1.1" xmlns="http://www.w3.org/2000/svg" xmlns:xlink="http://www.w3.org/1999/xlink">
  <g id="Page-1" stroke="none" stroke-width="1" fill="#77B405" fill-rule="evenodd">
      <g id="Artboard-Copy-5" transform="translate(-124.000000, -258.000000)">
          <g id="Group-2" transform="translate(96.000000, 97.000000)">
              <g transform="translate(26.000000, 30.000000)" id="Group-4">
                  <g transform="translate(3.000000, 83.000000)">
                      <g id="Group-9-Copy-6" transform="translate(0.000000, 49.000000)">
                          <path d="M6.00764272,18 C6.00764272,18 0.0291378641,12.4187825 0.0291378641,6.00763689 C0.0291378641,2.70577282 2.70583689,0.0290737864 6.00764272,0.0290737864 C9.3095068,0.0290737864 11.9862058,2.70577282 11.9862058,6.00763689 C11.9862058,12.4187825 6.00764272,18 6.00764272,18 Z" id="Fill-1" fill="#77B405"></path>
                          <path d="M9.00767767,6.00763689 C9.00767767,7.66446625 7.66454978,9.00767964 6.00763492,9.00767964 C4.35080556,9.00767964 3.00767767,7.66446625 3.00767767,6.00763689 C3.00767767,4.35080754 4.35080556,3.00759414 6.00763492,3.00759414 C7.66454978,3.00759414 9.00767767,4.35080754 9.00767767,6.00763689" id="Fill-5-Copy-2" fill="#FFFFFF"></path>
                      </g>
                  </g>
              </g>
          </g>
      </g>
  </g>
</svg>