<svg version="1.1" id="Layer_1" xmlns="http://www.w3.org/2000/svg" xmlns:xlink="http://www.w3.org/1999/xlink" x="0px" y="0px"
							 viewBox="0 0 800 600" style="enable-background:new 0 0 800 600;" xml:space="preserve">
						<style type="text/css">
							.st0{fill:none;}
							.st1{fill:#021946;}
							.st2{fill-rule:evenodd;clip-rule:evenodd;fill:#00AEEF;stroke:#00AEEF;}
							.st3{fill-rule:evenodd;clip-rule:evenodd;fill:#7BD2F4;stroke:#7BD2F4;}
							.st4{fill-rule:evenodd;clip-rule:evenodd;fill:#C5E9F7;stroke:#C5E9F7;}
							.st5{fill-rule:evenodd;clip-rule:evenodd;fill:#021946;}
							.st6{fill:none;stroke:#F9CB77;stroke-width:4;stroke-miterlimit:10;}
							.st7{fill-rule:evenodd;clip-rule:evenodd;fill:#FFFFFF;}
							.st8{fill-rule:evenodd;clip-rule:evenodd;fill:#39A1CE;}
						</style>
						<g>
							<g transform="translate(-165.000000, -120.000000)">
								<path class="st0" d="M964,120.3H529.1c-2.3,0.9-5,0.9-6.4,2.9c-1.2,1.6-1.2,4.9,0,6.5c1.4,1.9,4.4,2.3,6,4.1
									c1.8,2.1,2.5,4.6,4.6,6.5c1.8,1.6,4.6,2.8,5.7,4.9c1.1,2.3-0.4,5.3,0.4,7.6c0.4,1.1,1.5,3.5,1.5,3.5L521,180.1l-38.6,18.3
									L447.1,211l169.4,129.9L604,351.5l-0.2,13.1l-52.4-7.3l-3.4,48.3l-11.1,6.8l-13.5-1.4l-0.8,30.1l-24.3-1.2h-16.9l-51.2-4.8
									l-18.8,2.4l4.3,51.7l-20.8,2l8.9,118.9l20.7,26.6l110.3-9l10.6-0.4L659,695c0,0.1,0.1,0.2,0.1,0.3c0.2,0.3,0.3,0.6,0.5,0.9
									c4.3,7.9,8.9,15.9,13.9,23.5H964V120.3z"/>
								<path class="st0" d="M181.7,208.6c3-4.9,7.9-8.1,11.3-12.9c2.6-3.7,2.8-9.4,7.2-11.7c1.6-0.7,3.2-1.1,4.6-1.1
									c3.5,0,6.5,1.8,9.5,3.2c5.1,2.5,12,3,19.1,3s14.1-0.5,19.6-0.9c12.2-0.9,25.8-8.1,33.9-17.1c1.9-2.3,5.5-11.3,8.3-11.8h0.4
									c3.7,0,7.1,8.7,8.5,11.3c2.6,5.5,2.8,10.6,3.7,16.4c0.4,3,4.6,13.1,9.7,13.1c1.1,0,1.9-0.4,3-1.2c3.7-3.2-1.8-14.5-3.4-17.8
									c-3-5.5-6.9-10.2-8.8-16.1c-1.8-5.1-2.5-12.4-1.6-18c1.6-9,8-18.1,12.3-26.6H164.9v139.9c6.1-10.6,10.1-21.1,11.4-33.6
									C177,219.7,178,214.8,181.7,208.6z"/>
								<path id="brooklyn_fill" class="st1" d="M659.7,696.2c-0.2-0.3-0.3-0.6-0.5-0.9c-0.1-0.1-0.1-0.2-0.1-0.3l-113.5-67.8l-10.6,0.4
									l-110.3,9L403.9,610l-8-106.6l-76.1,8.2l0.1-6.9l-6.7,1.7l-3.9-49.2c0-4.3,5-13.7,12.3-14.3l111.3-8.7l0.1,1l48.5,4.6h16.9
									l24.3,1.2l0.8-30.1l13.5,1.4l11.1-6.8l3.4-48.3l53.2,9.9l-1.6-15.7l12.5-9.7L447.1,211l35.2-12.6l38.6-18.3l19.8-23.7
									c0,0-1.1-2.4-1.5-3.5c-0.7-2.3,0.7-5.3-0.4-7.6c-1.1-2.1-3.9-3.4-5.7-4.9c-2.1-1.9-2.8-4.4-4.6-6.5c-1.6-1.8-4.6-2.1-6-4.1
									c-1.2-1.6-1.2-4.9,0-6.5c1.4-2,4.2-2.1,6.4-2.9H319.1c-4.3,8.5-10.7,17.6-12.3,26.6c-0.9,5.7-0.2,12.9,1.6,18
									c1.9,5.8,5.8,10.6,8.8,16.1c1.6,3.4,7.1,14.7,3.4,17.8c-1.1,0.9-1.9,1.2-3,1.2c-5.1,0-9.4-10.1-9.7-13.1c-0.9-5.8-1.1-11-3.7-16.4
									c-1.4-2.7-4.8-11.3-8.5-11.3h-0.4c-2.8,0.5-6.4,9.5-8.3,11.8c-8.1,9-21.7,16.3-33.9,17.1c-5.5,0.4-12.5,0.9-19.6,0.9
									s-14-0.5-19.1-3c-3-1.4-6-3.2-9.5-3.2c-1.4,0-3,0.4-4.6,1.1c-4.4,2.3-4.6,8-7.2,11.7c-3.4,4.8-8.3,8-11.3,12.9
									c-3.7,6.2-4.8,11.1-5.5,18c-1.3,12.5-5.3,23-11.4,33.6V409c0,0,0.2,11.8-0.1,11.7v9.7v12.3v276.9h508.8
									C668.6,712.1,664,704.1,659.7,696.2z"/>
								<path id="east_brooklyn" class="st2 area-fill" data-area="east_brooklyn" d="M846.3,418.6c-0.9-2.3-2.5-4.6-3.5-6.7c-1.2-2.5-2.5-5.3-2.5-7.9c-0.2-3,1.2-5.3,1.1-8.3
									c-0.2-2.1-0.5-4.9-2.5-4.9c-0.4,0-0.7,0.2-1.2,0.5c-1.9,0.9-2.8,4.2-4.2,5.8c-1.1,1.2-1.9,1.6-2.5,1.6c-2.3,0-3.2-4.6-3.5-7.1
									c-0.2-2.8-1.4-8-1.4-8l-46.7-21.7c0,0-6.7-1.9-10.6-7.2c-3.8-5.3-8.7-13.5-15.4-11.6s-52.4,22.6-73.1,26
									c-17.1,2.8-29.9,3.9-55.9,1.8l0,0c0,0,21.8,97.7,24.1,112.1l4.3,23l87.9,89.3c7,4.9,13.2,10,19.7,16c1.6,1.6,8.6,9,10.7,9h0.2
									c2.1-0.5,4.4-8.6,6.5-10.6c4.8-4.9,20.1-8.1,18.7-16.6c-1.1-6.2-8.6-10.8-12.7-15c-5.5-5.5-9.2-9.7-12.5-16.9
									c-1.9-4.6-6.2-11.1-5.3-16.2c0.4-0.2,0.9-0.2,1.2-0.2c5.6,0,12,6.9,14.8,10.8c1.9,2.6,3.3,6.3,6.9,6.7h0.7c2.5,0,4.4-1.9,6.5-3.2
									c5.5-3.4,9.5-6.2,9.3-12.9c-0.4-5.5-4.9-10.9-7.4-15.9h0.2c4,0,10,10.6,11.6,14.1c2.5,5.5,0,11.6,3.2,17.1c1.2,2.1,2.1,3.2,3,3.2
									c0.7,0,1.8-0.7,3.2-1.8c3-2.3,4.9-2.8,8.8-3.5c3.3-0.7,7.7-1.8,9.9-4.6c2.3-3.2,1.8-8.8,1.8-12.5c0-3.4-0.7-6.9-0.4-10.2
									c0.4-3.3,2.3-5.3,1.9-8.8c-0.7-7.2-5.1-17.6-11.1-22c-3.3-2.6-15-5.6-13.7-11.6h0.5c0.9,0,1.8,0.2,2.6,0.4
									c-1.2-3.5,1.1-7.4-3.2-9.5c-1.2-0.7-5.6-1.4-6.2-2.8c-0.7-1.8,2.8-3.7,4.1-4.1c2.5-1.1,5.3-1.1,7.7-2.3c2.1-1.1,3.5-3.4,5.5-4.8
									c1.8-1.2,3.3-2.3,5.3-2.3c0.2,0,0.5,0,0.9,0.2c1.4,0.2,2.3,0.5,3.5,0.5c0.5,0,1.1,0,1.9-0.4c5.5-2.1,3.5-8.5-0.4-11.1
									c-2.1-1.8-6-2.5-4.9-6c0.4-1.2,3.3-4.4,4.6-4.8h0.7c1.9,0,2.6,2.5,4.6,3.2c0.5,0.2,1.1,0.2,1.6,0.2c2.3,0,5.6-0.9,6.5-2.1
									c0.5-0.7,0.7-1.4,0.7-2.3v-0.4c0-4.4-4.8-10.9-5.1-14.5C847,424.2,847.2,421.4,846.3,418.6"/>
								<path id="lefferts_gardens" class="st3 area-fill" data-area="lefferts_gardens" d="M321.5,443l111.3-8.7l6,64.4l-119.1,12.9l0.1-6.9l-6.7,1.7l-3.9-49.2
									C309.2,453,314.2,443.6,321.5,443"/>
								<path id="east_flatbush" class="st2 area-fill" data-area="east_flatbush" d="M559.8,600.2l-3.8-32.5l57.7-48.9L529,440.3l-26-1.2h-18l-54.6-4.8l6.1,63.2l-42.8,4.6
									l8.6,107.1l22.1,28.5l117.8-9l-0.8-18.3L559.8,600.2z"/>
								<path id="bushwick" class="st2 area-fill" data-area="bushwick" d="M623.3,322.5H617l7.8-18.5l-3.5-3.1l3.5-13.8l10.7-12.5l1.9-6.3L620,255.7l7.2-10.2L593,218.7
									l3.9-7.3l-9.2-7.8l4.3-6.8L540.8,156L521,179.8l-38.6,18.4l-35.2,12.6L615,341.3l14.9-12.5L623.3,322.5z"/>
								<path id="brownsville" class="st3 area-fill" data-area="brownsville" d="M648.5,483.1c-2.3-14.6-24.1-112.1-24.1-112.1s-11.7-2.8-18.6-3.6L552,357l-3.4,46.9
									l-8.6,6.8l-17.2-1.5l-0.8,30.5l82.5,81.3l4.3-1.6l34.6-38L648.5,483.1z"/>
								<path id="cypress_hills" class="st4 area-fill" data-area="cypress_hills" d="M820.3,349h-5.8l-2.4-18.8l-10.2,1l-15-83.5l-23.2,6.8L741,272.8l-10.7,5.8l-50.4,41
									l-8.7-9.6l-13,14l-21.9-29l3.9-1.9l-5.5-17.9l-9.9,12l-3.5,13.8l3.5,3.1l-7.8,18.5h6.3l6.7,6.3l-14.4,12L603,351.4l1,15.9
									c7,0.8,14.1,2.8,19.7,3.2l0,0c26.2,2.1,39.1,1,56.3-1.8c20.8-3.4,66.8-24.1,73.6-26.1c6.8-1.9,9.7,4.4,13.6,9.7
									c3.9,5.3,12.5,9.1,12.5,9.1l47,21.7L820.3,349z"/>
								<path id="canarsie" class="st4 area-fill" data-area="canarsie" d="M744.1,593.6l-89.3-89.7l-4.4-23.2l-5.9-1.3l-35.3,35.2l-4.4,4l-54.7,51.5l3.6,32.6L536.4,613
									l0.8,16.5l10.7-0.4l114.9,68c0.2-3.4,5.1-4.6,5.1-4.6c2.3-0.5,6.3-2.7,8.3-4.1c4-2.8,7.3-7.1,11-10.1c2.4-2,4.8-3.8,7.1-6
									c1.4-1.4,2.4-3.3,3.5-5.1c1.2-2,2.9-3.4,4.5-5.1c8.3-9.1,17.6,0.7,22.7-4.3c4.3-4.1-5.1-17,6.8-25.5c2.8-2,5.6-3.5,8-6
									c1.4-1.4,7.9-8.4,13-13.8c0.7-3.3-1.6-6.6-1.6-6.6L744.1,593.6z"/>
								<path id="bushwick_text" class="st5 area-text" data-area="bushwick" d="M595.1,264.8l6,4.7l-8.9,11.3l19.5-3l7.9,6.1l-22.1,3.2l1.8,24.8l-8.4-6.5l-1-21.5
									l-10.2,12.9l-6-4.7L595.1,264.8z M578.2,263.1c0-1.2-0.3-2.3-0.9-3.3c-0.6-1.1-1.4-2-2.5-2.9s-2.4-1.5-3.7-1.8s-2.6-0.4-4-0.1
									c-1.3,0.2-2.6,0.7-3.9,1.5c-1.2,0.8-2.4,1.8-3.4,3c-1,1.3-1.7,2.6-2.2,4c-0.4,1.4-0.6,2.7-0.5,4s0.4,2.6,1,3.7
									c0.6,1.2,1.4,2.2,2.5,3c1.2,1,2.5,1.6,3.9,1.8c1.4,0.2,2.7,0.1,4.1-0.3l2.1,7.6c-2.4,0.7-4.8,0.8-7.2,0.1
									c-2.4-0.6-4.5-1.6-6.4-3.1c-2.1-1.7-3.9-3.5-5.1-5.6c-1.3-2.1-2.1-4.2-2.4-6.5c-0.3-2.3-0.2-4.6,0.5-6.9s1.8-4.6,3.6-6.8
									c1.7-2.2,3.6-3.9,5.8-5.1c2.1-1.2,4.3-1.9,6.6-2.1c2.3-0.2,4.6,0,6.9,0.8c2.3,0.7,4.6,1.9,6.7,3.6c0.8,0.6,1.5,1.3,2.3,2.1
									c0.7,0.8,1.4,1.7,1.9,2.6c0.6,0.9,1,2,1.4,3c0.3,1.1,0.5,2.2,0.5,3.4L578.2,263.1z M551.3,230.9l6,4.7l-21.4,27.2l-6-4.7
									L551.3,230.9z M506.9,196.4l6.6,5.1l-9.4,20.8l0.1,0.1l19.5-13l5.6,4.4l-8.4,22.3l0.1,0.1l18.7-14.3l6.1,4.7l-29.4,21l-5.4-4.2
									l8.8-23.5l-0.1-0.1l-20.9,14.1l-5.2-4L506.9,196.4z M596.1,231.1l3.7,2.9l-4.9,6.3l7.3,5.6l4.9-6.3l3.7,2.9l-13.3,16.8l-3.7-2.9
									l5.7-7.3l-7.3-5.6l-5.7,7.3l-3.7-2.9L596.1,231.1z M585.2,229.4c0-0.6-0.2-1.2-0.6-1.8c-0.4-0.6-0.8-1.1-1.3-1.4
									c-0.3-0.2-0.6-0.4-0.9-0.6c-0.3-0.2-0.7-0.3-1.1-0.3c-0.4-0.1-0.7,0-1,0.1s-0.6,0.3-0.9,0.6c-0.4,0.5-0.5,1-0.3,1.6
									s0.5,1.2,0.9,1.8s0.9,1.3,1.4,2s0.9,1.5,1.2,2.3s0.4,1.6,0.3,2.5c-0.1,0.9-0.5,1.8-1.3,2.8c-0.7,0.9-1.6,1.6-2.5,2
									s-1.8,0.6-2.8,0.6s-1.9-0.2-2.9-0.6c-1-0.4-1.9-0.9-2.8-1.6c-1.1-0.9-2-1.8-2.7-2.9c-0.7-1.1-1.1-2.3-1.4-3.7l4.9-0.8
									c0,0.8,0.2,1.6,0.5,2.3c0.4,0.7,0.9,1.3,1.5,1.8c0.3,0.2,0.6,0.4,1,0.6c0.4,0.2,0.7,0.3,1.1,0.3c0.4,0,0.7,0,1-0.1
									s0.6-0.3,0.8-0.6c0.4-0.5,0.5-1.1,0.4-1.7c-0.2-0.6-0.5-1.2-0.9-1.9s-0.9-1.4-1.4-2.1c-0.5-0.7-0.9-1.5-1.3-2.3
									c-0.3-0.8-0.4-1.6-0.4-2.5c0.1-0.9,0.5-1.8,1.2-2.7s1.5-1.6,2.4-2s1.8-0.6,2.8-0.6s1.9,0.2,2.9,0.6c1,0.4,1.9,0.9,2.7,1.5
									c1,0.7,1.8,1.6,2.5,2.6s1.1,2,1.4,3.2L585.2,229.4z M566.3,224.7c-0.8,1-1.7,1.8-2.6,2.4c-1,0.6-2,1-3.1,1.1
									c-1.1,0.2-2.2,0.1-3.4-0.3c-1.2-0.3-2.3-1-3.5-1.9s-2.1-1.9-2.7-2.9c-0.6-1-1-2.1-1.1-3.2c-0.1-1.1,0-2.2,0.4-3.2
									c0.4-1.1,0.9-2.1,1.7-3.1l8.2-10.3l3.7,2.9l-8,10.2c-0.4,0.5-0.7,1.1-0.9,1.6c-0.2,0.6-0.2,1.1-0.2,1.7c0,0.6,0.2,1.1,0.5,1.6
									s0.7,1,1.2,1.3c0.5,0.4,1,0.6,1.6,0.8c0.6,0.1,1.1,0.2,1.7,0.1c0.6-0.1,1.1-0.3,1.6-0.6s1-0.7,1.4-1.3l8-10.2l3.7,2.9L566.3,224.7
									z M540.6,199l2.7,2.1c0.3,0.2,0.6,0.4,0.9,0.6c0.3,0.2,0.7,0.2,1,0.3c0.3,0,0.7,0,1-0.2c0.3-0.1,0.6-0.4,0.9-0.7
									c0.3-0.3,0.4-0.7,0.5-1c0-0.3,0-0.7-0.2-1c-0.1-0.3-0.3-0.6-0.6-0.9c-0.3-0.3-0.5-0.5-0.8-0.8l-2.5-2L540.6,199z M535.2,206
									l3.4,2.6c0.3,0.2,0.6,0.4,1,0.6c0.3,0.2,0.7,0.3,1.1,0.3c0.4,0,0.7,0,1.1-0.2c0.3-0.1,0.7-0.4,1-0.8c0.3-0.4,0.5-0.8,0.5-1.2
									s-0.1-0.8-0.3-1.1c-0.2-0.4-0.5-0.7-0.8-1s-0.6-0.6-0.9-0.8l-2.8-2.2L535.2,206z M542.2,189.4l6.3,4.9c0.7,0.6,1.4,1.2,2.1,1.9
									c0.7,0.7,1.2,1.4,1.5,2.2s0.5,1.6,0.4,2.4c-0.1,0.8-0.5,1.7-1.2,2.6c-0.7,0.9-1.6,1.5-2.7,1.7c-1,0.2-2.1,0.1-3.2-0.3v0.1
									c0.5,0.5,0.9,1.1,1.2,1.6c0.3,0.6,0.4,1.2,0.5,1.8c0,0.6,0,1.2-0.2,1.8s-0.5,1.2-0.9,1.7c-0.7,0.9-1.5,1.5-2.3,1.8
									c-0.9,0.3-1.7,0.4-2.6,0.3c-0.9-0.1-1.8-0.4-2.7-0.8c-0.9-0.4-1.7-0.9-2.5-1.5l-7-5.4L542.2,189.4z"/>
								<path id="cypress_hills_text" class="st5 area-text" data-area="cypress_hills" d="M755.3,304.3c-0.6-0.3-1.2-0.4-1.9-0.3s-1.3,0.2-1.8,0.5c-0.3,0.1-0.6,0.3-0.9,0.6
									c-0.3,0.2-0.5,0.5-0.8,0.8c-0.2,0.3-0.4,0.6-0.4,1c-0.1,0.3,0,0.7,0.2,1c0.3,0.6,0.7,0.9,1.3,1s1.3,0.1,2,0
									c0.8-0.1,1.6-0.2,2.5-0.4c0.9-0.2,1.7-0.2,2.6-0.1c0.9,0.1,1.7,0.3,2.5,0.8s1.4,1.2,2,2.4c0.5,1.1,0.8,2.1,0.8,3.1
									s-0.2,1.9-0.7,2.8c-0.4,0.9-1,1.6-1.8,2.3c-0.8,0.7-1.7,1.3-2.7,1.8c-1.3,0.6-2.5,1-3.8,1.1s-2.6,0-3.9-0.4l1.4-4.8
									c0.7,0.4,1.5,0.5,2.3,0.5s1.6-0.2,2.3-0.5c0.3-0.2,0.7-0.4,1-0.6c0.3-0.3,0.6-0.5,0.8-0.8s0.3-0.6,0.4-1c0-0.3,0-0.7-0.2-1
									c-0.3-0.6-0.7-0.9-1.3-1s-1.3-0.1-2.1,0s-1.6,0.2-2.5,0.4c-0.9,0.1-1.8,0.2-2.7,0.1s-1.7-0.3-2.5-0.8c-0.8-0.4-1.4-1.2-1.9-2.2
									s-0.8-2-0.7-3c0-1,0.3-1.9,0.7-2.7c0.4-0.9,1-1.6,1.8-2.3c0.8-0.7,1.6-1.3,2.6-1.7c1.1-0.5,2.2-0.9,3.4-1.1s2.4-0.1,3.5,0.2
									L755.3,304.3z M737.3,313c-0.6-0.3-1.2-0.4-1.9-0.3s-1.3,0.2-1.8,0.5c-0.3,0.2-0.6,0.3-0.9,0.6c-0.3,0.2-0.5,0.5-0.8,0.8
									c-0.2,0.3-0.4,0.6-0.4,1c-0.1,0.3,0,0.7,0.2,1c0.3,0.6,0.7,0.9,1.3,1s1.3,0.1,2,0c0.8-0.1,1.6-0.2,2.5-0.4
									c0.9-0.2,1.7-0.2,2.6-0.1c0.9,0.1,1.7,0.3,2.5,0.8s1.4,1.2,2,2.4c0.5,1.1,0.8,2.1,0.8,3.1s-0.2,1.9-0.7,2.8
									c-0.4,0.9-1,1.6-1.8,2.3c-0.8,0.7-1.7,1.3-2.7,1.8c-1.3,0.6-2.5,1-3.8,1.1s-2.6,0-3.9-0.4l1.4-4.8c0.7,0.4,1.5,0.5,2.3,0.5
									s1.6-0.2,2.3-0.5c0.3-0.2,0.7-0.4,1-0.6c0.3-0.3,0.6-0.5,0.8-0.8s0.3-0.6,0.4-1c0-0.3,0-0.7-0.2-1c-0.3-0.6-0.7-0.9-1.4-1
									c-0.6-0.1-1.3-0.1-2.1,0s-1.6,0.2-2.5,0.4c-0.9,0.1-1.8,0.2-2.7,0.1s-1.7-0.3-2.5-0.8c-0.8-0.4-1.4-1.2-1.9-2.2s-0.7-2-0.7-3
									s0.3-1.9,0.7-2.7c0.4-0.9,1-1.6,1.8-2.3c0.8-0.7,1.6-1.3,2.6-1.7c1.1-0.5,2.2-0.9,3.4-1.1s2.4-0.1,3.5,0.2L737.3,313z
									 M705.6,322.4l13.2-6.4l1.9,3.9l-8.9,4.3l1.8,3.6l8.4-4.1l1.9,3.9l-8.4,4.1l1.9,3.9l9.4-4.5l1.9,3.9l-13.7,6.6L705.6,322.4z
									 M693.1,338.3l2.5-1.2c0.4-0.2,0.8-0.4,1.2-0.6s0.8-0.5,1-0.8c0.3-0.3,0.5-0.7,0.6-1.1s0-0.9-0.3-1.4c-0.2-0.5-0.5-0.8-0.9-1
									c-0.3-0.2-0.7-0.3-1.1-0.3c-0.4,0-0.8,0.1-1.2,0.2s-0.8,0.3-1.2,0.5l-2.8,1.3L693.1,338.3z M684.9,332.4l7.5-3.6
									c1-0.5,2-0.8,3-1.1c1-0.2,1.9-0.3,2.8-0.2c0.9,0.1,1.7,0.5,2.5,1c0.8,0.6,1.4,1.4,2,2.5c0.7,1.4,0.9,2.7,0.6,4
									c-0.2,1.3-1,2.4-2.2,3.3l8.9,5.7l-5.1,2.5l-7.9-5.7l-2.1,1l3.8,7.7l-4.3,2.1L684.9,332.4z M672.4,343.5l3.2-0.2
									c0.4,0,0.8-0.1,1.2-0.2s0.7-0.3,1-0.5s0.5-0.5,0.7-0.8s0.2-0.8,0.2-1.3s-0.2-1-0.5-1.3s-0.6-0.5-1-0.7s-0.9-0.2-1.4-0.2
									s-1,0-1.4,0l-2.4,0.2L672.4,343.5z M666.9,334.8l8-0.6c1.1-0.1,2.2-0.1,3.2,0.1c1,0.1,1.9,0.4,2.7,0.8s1.4,1,1.9,1.8
									s0.8,1.8,0.9,3.1c0.1,1.2,0,2.3-0.4,3.2c-0.3,0.9-0.8,1.6-1.5,2.1c-0.7,0.6-1.5,1-2.4,1.3c-1,0.3-2,0.5-3.1,0.6l-3.5,0.3l0.7,8.3
									l-4.7,0.4L666.9,334.8z M651.2,348.3l-9.1-11.6l5.9-0.5l5.2,7.6l4.2-8.3l5.6-0.4l-7,12.9l0.7,9.1l-4.7,0.4L651.2,348.3z
									 M635.7,342.8c-0.5-0.5-1.1-0.9-1.8-1.2c-0.7-0.2-1.5-0.3-2.4-0.3c-0.9,0.1-1.7,0.3-2.4,0.7c-0.7,0.4-1.4,0.9-1.9,1.6
									s-0.9,1.4-1.1,2.3c-0.3,0.9-0.3,1.8-0.3,2.8c0.1,1,0.3,1.9,0.7,2.7c0.4,0.8,0.9,1.5,1.5,2.1s1.3,1,2,1.3c0.8,0.3,1.6,0.4,2.4,0.3
									c1-0.1,1.8-0.3,2.5-0.8s1.3-1.1,1.7-1.8l4.2,2.6c-0.8,1.3-1.9,2.4-3.2,3.1c-1.4,0.7-2.8,1.1-4.3,1.2c-1.7,0.1-3.3,0-4.7-0.4
									c-1.5-0.4-2.7-1.1-3.9-2c-1.1-0.9-2-2-2.7-3.3s-1.1-2.9-1.2-4.6c-0.1-1.7,0-3.3,0.5-4.7c0.5-1.4,1.2-2.7,2.1-3.7
									c1-1.1,2.1-1.9,3.5-2.5s2.9-1,4.6-1.1c0.6,0,1.2,0,1.9,0c0.7,0.1,1.3,0.2,2,0.4c0.7,0.2,1.3,0.5,1.9,0.8c0.6,0.4,1.2,0.8,1.7,1.3
									L635.7,342.8z M792.7,345.8c0.4-0.5,0.7-1,0.8-1.7s0.1-1.3,0-1.9c-0.1-0.3-0.2-0.7-0.3-1s-0.3-0.7-0.6-0.9
									c-0.2-0.3-0.5-0.5-0.8-0.6s-0.7-0.2-1.1-0.1c-0.6,0.1-1.1,0.4-1.3,1c-0.3,0.5-0.4,1.2-0.5,2s-0.2,1.6-0.3,2.5s-0.3,1.7-0.6,2.5
									s-0.8,1.5-1.4,2.1c-0.7,0.6-1.6,1-2.8,1.3c-1.2,0.2-2.3,0.2-3.2-0.1c-1-0.3-1.8-0.7-2.5-1.4c-0.7-0.6-1.3-1.4-1.8-2.3
									s-0.8-1.9-1-3c-0.3-1.4-0.3-2.7-0.1-3.9c0.2-1.2,0.7-2.5,1.4-3.6l4.3,2.6c-0.6,0.6-0.9,1.3-1.1,2.1c-0.2,0.8-0.3,1.6-0.1,2.3
									c0.1,0.4,0.2,0.7,0.4,1.1s0.4,0.7,0.6,1c0.2,0.3,0.5,0.5,0.8,0.6s0.7,0.2,1,0.1c0.6-0.1,1.1-0.5,1.4-1c0.3-0.6,0.5-1.2,0.6-2
									s0.2-1.6,0.3-2.5s0.3-1.7,0.6-2.6c0.3-0.8,0.8-1.5,1.4-2.1c0.6-0.6,1.5-1,2.7-1.2c1.1-0.2,2.2-0.2,3.1,0.1
									c0.9,0.3,1.8,0.7,2.5,1.4c0.7,0.6,1.3,1.4,1.8,2.3s0.8,1.9,1,2.9c0.2,1.2,0.3,2.4,0.1,3.5c-0.1,1.2-0.5,2.3-1.1,3.3L792.7,345.8z
									 M792.6,317.1l0.9,4.6l-16.9,3.1l1.6,8.6l-4.3,0.8l-2.5-13.2L792.6,317.1z M789.3,299.2l0.9,4.6l-16.9,3.1l1.6,8.6l-4.3,0.8
									l-2.5-13.2L789.3,299.2z M787,287.3l0.9,4.6l-21.3,3.9l-0.9-4.6L787,287.3z M782.3,261.9l0.9,4.6l-7.9,1.5l1.7,9l7.9-1.5l0.9,4.6
									l-21.3,3.9l-0.9-4.6l9.2-1.7l-1.7-9l-9.2,1.7l-0.9-4.6L782.3,261.9z"/>
								<path id="brownsville_text" class="st5 area-text" data-area="brownsville" d="M621.2,441.8h14.5v4.5h-9.8v4.1h9.2v4.5h-9.2v4.5h10.3v4.5h-15V441.8z M603.3,441.8
									h4.7v17.6h8.7v4.5h-13.4V441.8z M585.1,441.9h4.7v17.6h8.7v4.5h-13.4V441.9z M573.3,441.9h4.7V464h-4.7V441.9z M548.3,441.9h5.4
									l5.3,14.5h0.1l5.3-14.5h5l-8.7,22.2h-3.8L548.3,441.9z M620.7,419.4c-0.4-0.5-0.9-0.9-1.6-1.1c-0.7-0.2-1.3-0.4-1.9-0.4
									c-0.3,0-0.7,0-1,0.1c-0.4,0.1-0.7,0.2-1,0.4c-0.3,0.2-0.6,0.4-0.8,0.7c-0.2,0.3-0.3,0.6-0.3,1.1c0,0.7,0.2,1.2,0.7,1.5
									c0.5,0.4,1.1,0.7,1.8,0.9c0.7,0.2,1.5,0.5,2.4,0.7c0.8,0.2,1.6,0.6,2.4,1.1c0.7,0.5,1.3,1.1,1.8,1.8c0.5,0.8,0.7,1.8,0.7,3.1
									c0,1.2-0.2,2.3-0.7,3.2c-0.4,0.9-1,1.7-1.8,2.3c-0.8,0.6-1.6,1.1-2.6,1.4s-2,0.4-3.1,0.4c-1.4,0-2.7-0.2-3.8-0.7
									c-1.2-0.4-2.3-1.1-3.3-2.1l3.3-3.8c0.5,0.7,1.1,1.2,1.8,1.5c0.7,0.4,1.5,0.5,2.3,0.5c0.4,0,0.8,0,1.2-0.1s0.7-0.2,1.1-0.4
									c0.3-0.2,0.6-0.4,0.7-0.7c0.2-0.3,0.3-0.6,0.3-1c0-0.7-0.2-1.2-0.7-1.6s-1.1-0.7-1.9-1c-0.7-0.3-1.5-0.5-2.4-0.8s-1.7-0.6-2.4-1.1
									s-1.4-1.1-1.9-1.8c-0.5-0.7-0.7-1.7-0.7-3c0-1.2,0.2-2.2,0.7-3.1c0.4-0.9,1-1.6,1.8-2.3c0.8-0.6,1.6-1.1,2.6-1.4s2-0.5,3-0.5
									c1.2,0,2.4,0.2,3.5,0.5c1.1,0.4,2.1,0.9,3,1.8L620.7,419.4z M583.3,414h6.4l9.1,15.4h0.1V414h4.7v22.1h-6.1l-9.3-15.7h-0.1v15.8
									h-4.7L583.3,414z M548.7,414.1h5.1l3.4,14.2h0.1l4.4-14.2h4.4l4.4,14.6h0.1l3.5-14.6h4.8l-6.2,22.2h-4.2l-4.7-15.3h-0.1l-4.7,15.3
									h-4L548.7,414.1z M608.8,397.2c0,1,0.2,2,0.5,2.9s0.8,1.6,1.3,2.2c0.6,0.6,1.3,1.1,2.1,1.5s1.7,0.5,2.7,0.5s1.9-0.2,2.7-0.5
									c0.8-0.4,1.5-0.9,2.1-1.5s1-1.4,1.3-2.3s0.5-1.8,0.5-2.9c0-1-0.2-2-0.5-2.8c-0.3-0.9-0.8-1.6-1.3-2.3c-0.6-0.6-1.3-1.1-2.1-1.5
									s-1.7-0.5-2.7-0.5s-1.9,0.2-2.7,0.5c-0.8,0.4-1.5,0.9-2.1,1.5s-1,1.4-1.3,2.3C609,395.3,608.8,396.2,608.8,397.2L608.8,397.2z
									 M604,397.2c0-1.8,0.3-3.4,0.8-4.8c0.6-1.4,1.4-2.7,2.4-3.7s2.2-1.8,3.6-2.3c1.4-0.5,2.9-0.8,4.6-0.8s3.2,0.3,4.6,0.8
									c1.4,0.5,2.6,1.3,3.6,2.3s1.8,2.2,2.4,3.7c0.6,1.4,0.9,3,0.9,4.8s-0.3,3.4-0.8,4.8c-0.6,1.4-1.4,2.7-2.4,3.7s-2.2,1.8-3.6,2.3
									c-1.4,0.5-2.9,0.8-4.6,0.8c-1.7,0-3.2-0.3-4.6-0.8c-1.4-0.5-2.6-1.3-3.6-2.3s-1.8-2.2-2.4-3.7C604.2,400.6,604,399,604,397.2
									L604,397.2z M588.1,395.4h2.8c0.4,0,0.9,0,1.3,0c0.5,0,0.9-0.1,1.3-0.3c0.4-0.2,0.7-0.4,0.9-0.7c0.2-0.3,0.4-0.8,0.4-1.4
									s-0.1-1-0.3-1.3s-0.5-0.6-0.8-0.8c-0.3-0.2-0.7-0.3-1.2-0.4c-0.4-0.1-0.9-0.1-1.3-0.1h-3.1L588.1,395.4z M583.4,386.2h8.2
									c1.1,0,2.1,0.1,3.1,0.3c1,0.2,1.8,0.6,2.6,1.1c0.7,0.5,1.3,1.2,1.7,2.1s0.6,1.9,0.7,3.2c0,1.6-0.4,2.9-1.2,4s-1.9,1.8-3.4,2.1
									l5.4,9.3h-5.6l-4.5-8.8h-2.3v8.9h-4.7V386.2z M567.1,404.3h4.2c0.4,0,0.7,0,1.1-0.1c0.4-0.1,0.7-0.2,1-0.4
									c0.3-0.2,0.5-0.5,0.7-0.8s0.3-0.7,0.3-1.2s-0.1-0.9-0.4-1.3c-0.3-0.3-0.6-0.6-0.9-0.7c-0.4-0.2-0.8-0.3-1.2-0.3
									c-0.4-0.1-0.9-0.1-1.2-0.1h-3.5L567.1,404.3z M567.1,395.1h3.4c0.4,0,0.7,0,1.1-0.1c0.4-0.1,0.7-0.2,0.9-0.4
									c0.3-0.2,0.5-0.4,0.7-0.8c0.2-0.3,0.3-0.7,0.3-1.1c0-0.5-0.1-0.8-0.3-1.1c-0.2-0.3-0.4-0.5-0.7-0.7s-0.6-0.3-1-0.4
									s-0.8-0.1-1.1-0.1h-3.2L567.1,395.1z M562.4,386.3h7.9c0.9,0,1.9,0.1,2.8,0.2c0.9,0.1,1.8,0.4,2.5,0.8s1.3,1,1.8,1.7
									s0.7,1.7,0.7,2.9c0,1.3-0.3,2.3-1,3.1c-0.7,0.8-1.6,1.4-2.7,1.8v0.1c0.7,0.1,1.3,0.3,1.9,0.6c0.6,0.3,1.1,0.7,1.5,1.2s0.7,1,1,1.6
									c0.2,0.6,0.3,1.3,0.3,2c0,1.2-0.2,2.1-0.7,2.9s-1.1,1.4-1.9,1.9c-0.8,0.5-1.6,0.8-2.6,1s-1.9,0.3-2.8,0.3h-8.7V386.3z"/>
								<path id="lefferts_gardens_text" class="st5 area-text" data-area="lefferts_gardens" d="M427.6,473.5c-0.3-0.3-0.7-0.5-1.2-0.7c-0.5-0.1-0.9-0.2-1.3-0.1
									c-0.2,0-0.5,0.1-0.7,0.2c-0.3,0.1-0.5,0.2-0.7,0.3c-0.2,0.1-0.4,0.3-0.5,0.5s-0.2,0.5-0.1,0.8c0,0.5,0.2,0.8,0.6,1
									s0.8,0.4,1.3,0.5s1.1,0.2,1.7,0.4s1.2,0.3,1.7,0.6c0.5,0.3,1,0.7,1.4,1.2s0.6,1.2,0.7,2.1s0,1.6-0.3,2.3c-0.3,0.7-0.6,1.2-1.1,1.7
									s-1.1,0.8-1.8,1.1c-0.7,0.3-1.4,0.4-2.2,0.5c-1,0.1-1.9,0-2.8-0.2s-1.7-0.6-2.5-1.2l2.1-2.9c0.4,0.4,0.8,0.7,1.4,0.9
									c0.5,0.2,1.1,0.3,1.6,0.2c0.3,0,0.5-0.1,0.8-0.2s0.5-0.2,0.7-0.4c0.2-0.2,0.4-0.3,0.5-0.5s0.2-0.5,0.1-0.7c0-0.5-0.2-0.8-0.6-1
									s-0.8-0.4-1.4-0.6c-0.5-0.1-1.1-0.3-1.8-0.4c-0.6-0.1-1.2-0.3-1.8-0.6c-0.6-0.3-1-0.6-1.4-1.1s-0.6-1.2-0.7-2s0-1.6,0.3-2.2
									c0.3-0.7,0.6-1.2,1.1-1.7s1.1-0.8,1.8-1.1c0.7-0.3,1.4-0.4,2.1-0.5c0.8-0.1,1.7,0,2.5,0.1c0.8,0.2,1.6,0.5,2.3,1L427.6,473.5z
									 M401.2,472.2l4.5-0.4l7.4,10l0,0l-1-10.6l3.3-0.3l1.4,15.3l-4.3,0.4l-7.6-10.3l0,0l1,10.9l-3.3,0.3L401.2,472.2z M386.7,473.6
									l10.2-1l0.3,3.1l-6.9,0.7l0.3,2.9l6.5-0.6l0.3,3.1l-6.5,0.6l0.3,3.1l7.3-0.7l0.3,3.1l-10.6,1L386.7,473.6z M373.7,487.1l1.7-0.2
									c0.8-0.1,1.5-0.2,2.1-0.4c0.6-0.2,1.2-0.5,1.6-1c0.4-0.4,0.8-0.9,1-1.6s0.3-1.4,0.2-2.2c-0.1-0.7-0.3-1.4-0.6-1.9
									c-0.3-0.5-0.7-1-1.2-1.3s-1.1-0.5-1.7-0.7c-0.6-0.1-1.3-0.1-2-0.1l-2,0.2L373.7,487.1z M369.2,475.2l5-0.5
									c1.2-0.1,2.4-0.1,3.5,0.1s2.1,0.5,3,1.1c0.9,0.5,1.6,1.3,2.1,2.2c0.6,0.9,0.9,2.1,1,3.5c0.1,1.2,0,2.4-0.4,3.3
									c-0.4,1-0.9,1.8-1.6,2.6c-0.7,0.7-1.6,1.3-2.6,1.7c-1,0.4-2,0.7-3.2,0.8l-5.4,0.5L369.2,475.2z M358,482.7l2-0.2
									c0.3,0,0.6-0.1,0.9-0.1c0.3-0.1,0.6-0.1,0.9-0.3c0.3-0.1,0.5-0.3,0.6-0.6c0.2-0.3,0.2-0.6,0.2-1s-0.1-0.7-0.3-0.9
									c-0.2-0.2-0.4-0.4-0.6-0.5c-0.3-0.1-0.5-0.2-0.9-0.2c-0.3,0-0.6,0-0.9,0l-2.2,0.2L358,482.7z M354.1,476.7l5.8-0.6
									c0.8-0.1,1.5-0.1,2.2,0s1.3,0.3,1.9,0.6c0.5,0.3,1,0.7,1.4,1.3c0.4,0.6,0.6,1.3,0.7,2.2c0.1,1.1-0.1,2-0.6,2.8s-1.2,1.4-2.3,1.7
									l4.4,6.1l-4,0.4l-3.7-5.8l-1.6,0.2l0.6,6.1l-3.3,0.3L354.1,476.7z M343.7,482.1l-1.4,4.9l3.7-0.4L343.7,482.1z M342,477.8l2.7-0.3
									l7.9,14.7l-3.7,0.4l-1.6-3.1l-5.8,0.6l-1,3.4l-3.7,0.3L342,477.8z M334.3,492.9c-0.9,0.6-1.9,1.1-3,1.4c-1,0.3-2.1,0.6-3.2,0.7
									c-1.2,0.1-2.3,0-3.3-0.3s-1.9-0.7-2.7-1.4c-0.8-0.6-1.4-1.4-1.9-2.4s-0.8-2-0.9-3.3c-0.1-1.2,0-2.4,0.3-3.4s0.8-1.9,1.5-2.7
									c0.7-0.8,1.5-1.4,2.4-1.9c1-0.5,2-0.8,3.2-0.9s2.3-0.1,3.4,0.1c1,0.2,2,0.6,2.8,1.3l-2.1,2.8c-0.5-0.4-1-0.7-1.6-0.9
									c-0.6-0.2-1.3-0.2-2.2-0.2c-0.7,0.1-1.3,0.3-1.9,0.6c-0.5,0.3-1,0.7-1.4,1.2s-0.6,1-0.8,1.7c-0.2,0.6-0.2,1.3-0.2,2
									c0.1,0.7,0.2,1.4,0.5,1.9c0.3,0.6,0.6,1.1,1.1,1.5s1,0.7,1.6,0.9c0.6,0.2,1.2,0.3,2,0.2c0.7-0.1,1.3-0.2,1.8-0.4
									c0.5-0.2,0.9-0.4,1.2-0.6l-0.2-2.5l-2.7,0.3l-0.3-3.1l5.9-0.6L334.3,492.9z M426,451.5c-0.3-0.3-0.7-0.6-1.2-0.7s-0.9-0.2-1.4-0.1
									c-0.2,0-0.5,0.1-0.8,0.2s-0.5,0.2-0.7,0.4c-0.2,0.1-0.4,0.3-0.5,0.6c-0.1,0.2-0.2,0.5-0.1,0.8c0,0.5,0.3,0.8,0.6,1
									c0.4,0.2,0.8,0.4,1.4,0.5c0.5,0.1,1.1,0.3,1.8,0.4c0.6,0.1,1.2,0.3,1.8,0.6c0.6,0.3,1,0.7,1.4,1.2s0.6,1.2,0.7,2.1s0,1.7-0.3,2.3
									c-0.3,0.7-0.6,1.3-1.2,1.7c-0.5,0.5-1.1,0.9-1.8,1.1c-0.7,0.3-1.5,0.5-2.3,0.5c-1,0.1-2,0-2.8-0.2c-0.9-0.2-1.7-0.7-2.5-1.3
									l2.2-2.9c0.4,0.4,0.9,0.8,1.4,1c0.6,0.2,1.1,0.3,1.7,0.2c0.3,0,0.6-0.1,0.8-0.2c0.3-0.1,0.5-0.2,0.7-0.4c0.2-0.2,0.4-0.3,0.5-0.6
									c0.1-0.2,0.2-0.5,0.1-0.8c0-0.5-0.3-0.8-0.6-1.1c-0.4-0.2-0.9-0.4-1.4-0.6c-0.6-0.1-1.2-0.3-1.8-0.4c-0.6-0.1-1.2-0.3-1.8-0.6
									c-0.6-0.3-1.1-0.7-1.5-1.2s-0.6-1.2-0.7-2.1c-0.1-0.8,0-1.6,0.3-2.3c0.3-0.7,0.7-1.2,1.2-1.7s1.1-0.9,1.8-1.1
									c0.7-0.3,1.4-0.5,2.2-0.5c0.9-0.1,1.7,0,2.6,0.1c0.8,0.2,1.6,0.5,2.3,1.1L426,451.5z M407.3,452.5l-4.4,0.4l-0.3-3.1l12.2-1.2
									l0.3,3.1l-4.4,0.4l1.2,12.7l-3.4,0.3L407.3,452.5z M392.4,457.4l2-0.2c0.3,0,0.6-0.1,1-0.1c0.3-0.1,0.6-0.2,0.9-0.3
									c0.3-0.1,0.5-0.3,0.6-0.6c0.2-0.3,0.2-0.6,0.2-1s-0.1-0.7-0.3-0.9c-0.2-0.2-0.4-0.4-0.7-0.5c-0.3-0.1-0.6-0.2-0.9-0.2
									s-0.6,0-0.9,0l-2.2,0.2L392.4,457.4z M388.4,451.2l6-0.6c0.8-0.1,1.5-0.1,2.3,0c0.7,0.1,1.4,0.3,1.9,0.6c0.6,0.3,1,0.8,1.4,1.3
									c0.4,0.6,0.6,1.3,0.7,2.3c0.1,1.1-0.1,2.1-0.6,2.9s-1.3,1.4-2.4,1.7l4.5,6.3l-4.1,0.4l-3.8-6l-1.7,0.2l0.6,6.3l-3.4,0.3
									L388.4,451.2z M373.5,452.6l10.5-1l0.3,3.2l-7.1,0.7l0.3,2.9l6.7-0.6l0.3,3.2l-6.7,0.6l0.3,3.2l7.5-0.7l0.3,3.2l-10.9,1
									L373.5,452.6z M359.4,453.9l10.4-1l0.3,3.2l-7,0.7l0.3,3.2l6.4-0.6l0.3,3.2l-6.4,0.6l0.6,6.1l-3.4,0.3L359.4,453.9z M345.3,455.3
									l10.4-1l0.3,3.2l-7,0.7l0.3,3.2l6.4-0.6l0.3,3.2l-6.4,0.6l0.6,6.1l-3.4,0.3L345.3,455.3z M330.3,456.7l10.5-1l0.3,3.2l-7.1,0.7
									l0.3,2.9l6.7-0.6l0.3,3.2l-6.7,0.6l0.3,3.2l7.5-0.7l0.3,3.2l-10.9,1L330.3,456.7z M317.6,457.9l3.4-0.3l1.1,12.5l6.3-0.6l0.3,3.2
									l-9.7,0.9L317.6,457.9z"/>
								<path id="east_flatbush_text" class="st5 area-text" data-area="east_flatbush" d="M472.6,581.1l7.6-0.6l1,13l14.7-1.2l-1-13l7.6-0.6l2.7,34.8l-7.6,0.6l-1.2-15
									l-14.7,1.2l1.2,15l-7.6,0.6L472.6,581.1z M458.9,590.8c-0.7-0.7-1.6-1.3-2.6-1.5c-1.1-0.3-2.1-0.4-3-0.3c-0.5,0-1.1,0.2-1.7,0.3
									c-0.6,0.2-1.1,0.4-1.6,0.7s-0.9,0.7-1.2,1.2c-0.3,0.5-0.4,1.1-0.4,1.7c0.1,1.1,0.5,1.8,1.3,2.3s1.8,0.9,3,1.2s2.5,0.6,3.9,0.9
									c1.4,0.3,2.7,0.7,3.9,1.4c1.2,0.6,2.3,1.5,3.2,2.7c0.9,1.2,1.4,2.7,1.5,4.8c0.2,1.9-0.1,3.7-0.7,5.2s-1.5,2.8-2.6,3.8
									s-2.5,1.9-4.1,2.5s-3.2,1-5,1.1c-2.2,0.2-4.3,0-6.3-0.5s-3.8-1.5-5.6-2.9l4.9-6.4c0.9,1,1.9,1.7,3.1,2.2s2.5,0.7,3.7,0.6
									c0.6,0,1.2-0.2,1.8-0.4c0.6-0.2,1.2-0.5,1.6-0.8c0.5-0.3,0.9-0.7,1.1-1.2c0.3-0.5,0.4-1,0.3-1.7c-0.1-1-0.5-1.8-1.4-2.4
									c-0.8-0.5-1.9-1-3.1-1.3s-2.6-0.7-4-1s-2.8-0.8-4-1.4c-1.3-0.6-2.3-1.5-3.2-2.6c-0.9-1.1-1.4-2.6-1.6-4.6c-0.1-1.9,0.1-3.5,0.7-5
									s1.5-2.7,2.6-3.8c1.1-1,2.5-1.9,4-2.5s3.2-1,4.8-1.1c1.9-0.2,3.8,0,5.7,0.4c1.9,0.4,3.6,1.2,5.1,2.4L458.9,590.8z M503.7,559.3
									c0.2,2.1,0,4-0.5,5.8s-1.3,3.4-2.4,4.7c-1.1,1.4-2.5,2.5-4.3,3.4s-3.8,1.4-6.2,1.6c-2.4,0.2-4.5,0-6.4-0.6s-3.5-1.5-4.8-2.6
									c-1.3-1.2-2.3-2.6-3.1-4.3c-0.7-1.7-1.2-3.6-1.4-5.6l-1.7-21.4l7.6-0.6l1.6,21.1c0.1,1.1,0.3,2.1,0.7,3c0.4,0.9,0.9,1.6,1.6,2.3
									c0.7,0.6,1.4,1.1,2.3,1.4c0.9,0.3,1.8,0.4,2.8,0.3c1-0.1,1.9-0.3,2.7-0.8c0.8-0.4,1.5-1,2.1-1.7s1-1.6,1.2-2.5
									c0.3-0.9,0.4-2,0.3-3l-1.6-21.1l7.6-0.6L503.7,559.3z M447.7,570.7l6.8-0.5c0.6,0,1.2-0.2,1.8-0.3c0.6-0.2,1.1-0.4,1.6-0.8
									c0.5-0.4,0.8-0.8,1.1-1.4c0.3-0.5,0.4-1.2,0.3-2s-0.3-1.5-0.8-1.9c-0.4-0.5-1-0.8-1.6-1s-1.3-0.3-2-0.4c-0.7,0-1.4,0-2,0l-5.7,0.5
									L447.7,570.7z M446.5,556.3l5.5-0.4c0.6,0,1.2-0.2,1.7-0.3c0.6-0.2,1-0.4,1.5-0.8c0.4-0.3,0.8-0.8,1-1.3s0.3-1.1,0.3-1.8
									c-0.1-0.7-0.3-1.3-0.6-1.8c-0.3-0.5-0.8-0.8-1.3-1s-1.1-0.4-1.7-0.4c-0.6-0.1-1.2-0.1-1.8,0l-5.1,0.4L446.5,556.3z M437.9,543
									l12.8-1c1.5-0.1,3-0.1,4.5,0s2.9,0.4,4.2,1c1.2,0.5,2.3,1.4,3.1,2.4c0.8,1.1,1.3,2.6,1.5,4.5c0.2,2-0.3,3.6-1.2,5
									c-1,1.4-2.3,2.4-4.1,3.1v0.1c1.1,0.1,2.2,0.3,3.2,0.7s1.8,0.9,2.5,1.6c0.7,0.7,1.3,1.5,1.7,2.5c0.4,1,0.7,2,0.8,3.1
									c0.1,1.8-0.1,3.4-0.8,4.7c-0.7,1.3-1.6,2.4-2.8,3.2c-1.2,0.9-2.5,1.5-4,2c-1.5,0.4-3,0.7-4.5,0.9l-14.1,1.1L437.9,543z
									 M540.4,500.7l-9.8,0.8l-0.5-6.8l27.2-2.2l0.5,6.8l-9.8,0.8l2.2,28l-7.6,0.6L540.4,500.7z M513.1,506.3l-3.3,11.2l8.4-0.7
									L513.1,506.3z M509.4,496.4l6.3-0.5l17.6,33.6l-8.5,0.7l-3.5-7.1l-13.3,1.1l-2.3,7.6l-8.3,0.7L509.4,496.4z M467.3,499.7l7.6-0.6
									l2.2,27.7l14-1.1l0.6,7.1l-21.6,1.7L467.3,499.7z M435.3,502.3l23-1.8l0.6,7.1l-15.5,1.2l0.6,7.1l14.3-1.1l0.6,7.1l-14.3,1.1
									l1.1,13.6l-7.6,0.6L435.3,502.3z M528.7,471.5l-6.1,0.5l-0.3-4.2l16.8-1.3l0.3,4.2l-6.1,0.5l1.3,17.4l-4.7,0.4L528.7,471.5z
									 M514.7,473.7c-0.4-0.5-1-0.8-1.6-1c-0.7-0.2-1.3-0.3-1.9-0.2c-0.3,0-0.7,0.1-1,0.2c-0.4,0.1-0.7,0.3-1,0.5s-0.5,0.4-0.7,0.7
									c-0.2,0.3-0.3,0.7-0.2,1.1c0.1,0.7,0.3,1.1,0.8,1.4s1.1,0.6,1.9,0.7c0.7,0.2,1.6,0.4,2.4,0.5c0.9,0.2,1.7,0.5,2.4,0.8
									c0.8,0.4,1.4,0.9,2,1.7c0.5,0.7,0.9,1.7,1,3c0.1,1.2,0,2.3-0.4,3.2c-0.4,0.9-0.9,1.7-1.6,2.4c-0.7,0.6-1.5,1.2-2.5,1.5
									c-1,0.4-2,0.6-3.1,0.7c-1.4,0.1-2.7,0-3.9-0.3c-1.2-0.3-2.4-0.9-3.5-1.8l3-4c0.5,0.6,1.2,1.1,1.9,1.4c0.8,0.3,1.5,0.4,2.3,0.4
									c0.4,0,0.8-0.1,1.1-0.2c0.4-0.1,0.7-0.3,1-0.5s0.5-0.5,0.7-0.8s0.2-0.6,0.2-1c-0.1-0.7-0.3-1.1-0.9-1.5c-0.5-0.3-1.2-0.6-1.9-0.8
									c-0.8-0.2-1.6-0.4-2.5-0.6s-1.7-0.5-2.5-0.9s-1.4-0.9-2-1.6c-0.5-0.7-0.9-1.6-1-2.8c-0.1-1.2,0.1-2.2,0.4-3.1
									c0.4-0.9,0.9-1.7,1.6-2.3c0.7-0.6,1.5-1.2,2.5-1.5c1-0.4,2-0.6,3-0.7c1.2-0.1,2.4,0,3.5,0.2c1.1,0.3,2.2,0.8,3.2,1.5L514.7,473.7z
									 M487.5,476.9l-2.1,6.9l5.2-0.4L487.5,476.9z M485.2,470.8l3.9-0.3l10.9,20.8l-5.3,0.4l-2.2-4.4l-8.3,0.7l-1.4,4.7l-5.2,0.4
									L485.2,470.8z M456.2,473.1l14.5-1.2l0.3,4.4l-9.8,0.8l0.3,4l9.2-0.7l0.3,4.4l-9.2,0.7l0.3,4.4l10.3-0.8l0.3,4.4l-15,1.2
									L456.2,473.1z"/>
								<path id="canarsie_text" class="st5 area-text" data-area="canarsie" d="M684.5,589l16.8-16.6l5,5L695,588.6l4.6,4.6l10.7-10.6l5,5l-10.7,10.6l5,5l12-11.9l5,5
									l-17.5,17.3L684.5,589z M671.3,602.1l5.5-5.4l24.7,24.6l-5.5,5.4L671.3,602.1z M667,618.3c-1-0.1-2,0.1-3,0.5
									c-1,0.5-1.9,1.1-2.6,1.7c-0.4,0.4-0.8,0.8-1.1,1.3s-0.6,1-0.8,1.6s-0.2,1.1-0.1,1.7c0.1,0.6,0.4,1.1,0.8,1.5
									c0.7,0.7,1.6,1,2.5,0.9c1-0.2,2-0.5,3.1-1.1s2.3-1.2,3.6-1.9s2.6-1.2,3.9-1.5c1.4-0.3,2.8-0.3,4.2,0s2.8,1.2,4.3,2.6
									c1.4,1.4,2.3,2.8,2.8,4.3s0.7,3.1,0.5,4.6s-0.7,3-1.5,4.5s-1.9,2.8-3.2,4.1c-1.6,1.6-3.3,2.8-5.2,3.7s-3.9,1.4-6.2,1.4l-0.4-8.1
									c1.3,0.2,2.6,0.1,3.8-0.4c1.3-0.4,2.3-1.1,3.2-2c0.4-0.4,0.8-0.9,1.2-1.5c0.3-0.6,0.6-1.1,0.8-1.7c0.2-0.6,0.2-1.1,0.1-1.7
									c-0.1-0.5-0.4-1-0.8-1.5c-0.7-0.7-1.6-1-2.6-0.9s-2.1,0.5-3.2,1c-1.2,0.6-2.4,1.2-3.7,1.9s-2.6,1.2-4,1.6
									c-1.4,0.3-2.8,0.4-4.2,0.1c-1.4-0.3-2.8-1.1-4.2-2.5c-1.3-1.3-2.2-2.7-2.7-4.3c-0.5-1.5-0.6-3-0.4-4.6c0.2-1.5,0.7-3,1.5-4.5
									s1.8-2.8,3-4c1.4-1.4,3-2.5,4.7-3.4s3.5-1.4,5.5-1.5L667,618.3z M669.8,566.6l3.2-3.2c0.5-0.5,1-1,1.5-1.6s0.9-1.2,1.2-1.8
									s0.4-1.2,0.3-1.9c-0.1-0.7-0.5-1.3-1.1-2c-0.6-0.6-1.3-1-1.9-1.1c-0.6-0.1-1.2-0.1-1.8,0.1c-0.6,0.2-1.2,0.5-1.8,0.9
									s-1.1,0.9-1.6,1.4l-3.6,3.5L669.8,566.6z M654.2,561.8l9.6-9.5c1.3-1.2,2.6-2.3,4-3.2s2.8-1.4,4.2-1.7s2.9-0.2,4.3,0.3
									c1.5,0.5,2.9,1.4,4.4,2.9c1.7,1.7,2.8,3.7,3.1,5.8s-0.2,4.2-1.7,6.3l16.7,4.2l-6.5,6.5l-15-4.7l-2.7,2.7l9.9,9.8l-5.5,5.4
									L654.2,561.8z M643.4,586.8l4.7,10.6l6.1-6L643.4,586.8z M634.1,581.7l4.5-4.5l35.4,13.9l-6.2,6.1l-7.4-3.1l-9.6,9.5l3.2,7.3l-6,6
									L634.1,581.7z M595.2,620.1l7.4-7.3l27.7,6.7l0.1-0.1l-17.1-17.1l5.5-5.4l24.7,24.6l-7.1,7.1l-28.4-6.8l-0.1,0.1l17.6,17.5
									l-5.5,5.4L595.2,620.1z M610.6,562l4.7,10.6l6.1-6L610.6,562z M601.3,556.9l4.5-4.5l35.4,13.9l-6.2,6.1l-7.4-3.1l-9.6,9.5l3.2,7.3
									l-6,6L601.3,556.9z M589.4,581.5c-1.2-0.1-2.3,0-3.5,0.5c-1.1,0.4-2.2,1.1-3.2,2.2c-1,1-1.8,2.2-2.3,3.4c-0.5,1.3-0.7,2.6-0.6,3.9
									c0.1,1.3,0.4,2.7,1,4s1.5,2.6,2.6,3.7c1.2,1.2,2.4,2,3.7,2.6s2.7,0.9,4,1s2.6-0.1,3.9-0.5s2.4-1.2,3.3-2.1
									c1.1-1.1,1.9-2.3,2.3-3.6c0.4-1.3,0.5-2.7,0.2-4.1l7.9-1.1c0.4,2.5,0.2,4.9-0.7,7.2s-2.2,4.3-3.9,6c-1.9,1.9-4,3.4-6.3,4.4
									c-2.2,1-4.5,1.5-6.8,1.6s-4.6-0.4-6.9-1.3c-2.3-0.9-4.4-2.4-6.4-4.4s-3.4-4.1-4.4-6.3c-0.9-2.3-1.4-4.5-1.3-6.8
									c0.1-2.3,0.6-4.6,1.6-6.8s2.5-4.3,4.4-6.2c0.7-0.7,1.5-1.3,2.4-2c0.9-0.6,1.8-1.2,2.8-1.6c1-0.4,2.1-0.8,3.2-1
									c1.1-0.2,2.3-0.2,3.5-0.1L589.4,581.5z"/>
								<path id="east_brooklyn_text" class="st5 area-text" data-area="east_brooklyn" d="M730,486.1l7.8,5.9l-2.6,26.4l0.1,0.1l13.7-18.1l5.8,4.3l-19.7,26l-7.5-5.6l2.6-27.1
									l-0.1-0.1l-14,18.5l-5.8-4.3L730,486.1z M698.1,485.5l1.5-22.3l7.2,5.4l-1.8,13.9l13.3-5.3l6.8,5.1l-21.1,7.5l-8.4,11.1l-5.8-4.3
									L698.1,485.5z M684.2,451.7l5.8,4.3l-15.7,20.7l10.7,8l-4,5.3l-16.4-12.3L684.2,451.7z M788.8,475.5l5.8,4.3l-8.2,10.8l18.4-3.2
									l7.5,5.6l-20.8,3.4l2.1,23.4l-8.1-6l-1.3-20.3l-9.4,12.3l-5.8-4.3L788.8,475.5z M749.8,466.7c-0.9,1.2-1.6,2.5-2,3.8
									s-0.5,2.6-0.4,3.9s0.6,2.5,1.2,3.7c0.7,1.2,1.6,2.2,2.9,3.1c1.2,0.9,2.5,1.6,3.8,1.9s2.6,0.4,3.9,0.2c1.3-0.2,2.5-0.7,3.7-1.4
									c1.2-0.7,2.2-1.7,3.1-2.9c0.9-1.2,1.6-2.5,2-3.8s0.5-2.6,0.4-3.9s-0.6-2.5-1.2-3.7c-0.7-1.2-1.6-2.2-2.9-3.1
									c-1.2-0.9-2.5-1.6-3.8-1.9s-2.6-0.4-3.9-0.2c-1.3,0.2-2.5,0.7-3.7,1.4C751.8,464.6,750.8,465.5,749.8,466.7L749.8,466.7z
									 M743.9,462.2c1.6-2.1,3.4-3.7,5.3-4.9c2-1.2,4.1-1.9,6.2-2.1c2.2-0.2,4.3,0,6.5,0.6c2.2,0.7,4.3,1.7,6.4,3.3
									c2,1.5,3.7,3.3,4.9,5.2c1.2,1.9,2,4,2.4,6.1s0.2,4.3-0.3,6.5c-0.6,2.2-1.7,4.4-3.2,6.4c-1.6,2.1-3.4,3.7-5.3,4.9
									c-2,1.2-4.1,1.9-6.2,2.1c-2.2,0.2-4.3,0-6.5-0.6c-2.2-0.7-4.3-1.7-6.4-3.3c-2-1.5-3.7-3.3-4.9-5.2c-1.2-1.9-2-4-2.4-6.1
									s-0.2-4.3,0.3-6.5C741.2,466.5,742.3,464.3,743.9,462.2L743.9,462.2z M716.3,441.6c-0.9,1.2-1.6,2.5-2,3.8s-0.5,2.6-0.4,3.9
									s0.6,2.5,1.2,3.7c0.7,1.2,1.6,2.2,2.9,3.1c1.2,0.9,2.5,1.6,3.8,1.9s2.6,0.4,3.9,0.2c1.3-0.2,2.5-0.7,3.7-1.4
									c1.2-0.7,2.2-1.7,3.1-2.9c0.9-1.2,1.6-2.5,2-3.8s0.5-2.6,0.4-3.9s-0.6-2.5-1.2-3.7c-0.7-1.2-1.6-2.2-2.9-3.1
									c-1.2-0.9-2.5-1.6-3.8-1.9s-2.6-0.4-3.9-0.2c-1.3,0.2-2.5,0.7-3.7,1.4C718.2,439.4,717.2,440.4,716.3,441.6L716.3,441.6z
									 M710.3,437.1c1.6-2.1,3.4-3.7,5.3-4.9c2-1.2,4.1-1.9,6.2-2.1c2.2-0.2,4.3,0,6.5,0.6c2.2,0.7,4.3,1.7,6.4,3.3
									c2,1.5,3.7,3.3,4.9,5.2c1.2,1.9,2,4,2.4,6.1s0.2,4.3-0.3,6.5c-0.6,2.2-1.7,4.4-3.2,6.4c-1.6,2.1-3.4,3.7-5.3,4.9
									c-2,1.2-4.1,1.9-6.2,2.1c-2.2,0.2-4.3,0-6.5-0.6c-2.2-0.7-4.3-1.7-6.4-3.3c-2-1.5-3.7-3.3-4.9-5.2c-1.2-1.9-2-4-2.4-6.1
									s-0.2-4.3,0.3-6.5S708.7,439.2,710.3,437.1L710.3,437.1z M692.6,420.3l3.4,2.5c0.5,0.4,1.1,0.8,1.7,1.2c0.6,0.4,1.2,0.7,1.8,0.8
									c0.6,0.2,1.2,0.2,1.8,0s1.2-0.6,1.7-1.3c0.5-0.7,0.8-1.3,0.8-1.9s-0.1-1.2-0.4-1.7c-0.3-0.5-0.6-1-1.1-1.5s-1-0.9-1.5-1.3
									l-3.8-2.8L692.6,420.3z M695,405.3l10.1,7.6c1.3,1,2.5,2.1,3.5,3.2c1,1.2,1.7,2.4,2.2,3.6c0.4,1.3,0.5,2.6,0.3,4s-0.9,2.9-2.1,4.4
									c-1.4,1.8-3.1,3-5,3.6s-4,0.3-6.1-0.7l-1.7,16l-6.9-5.2l2.4-14.5l-2.8-2.1l-7.9,10.4l-5.8-4.3L695,405.3z M665.8,399.7l4.2,3.1
									c0.4,0.3,0.9,0.6,1.4,0.8c0.5,0.2,1,0.4,1.5,0.4s1-0.1,1.5-0.3c0.5-0.2,0.9-0.6,1.3-1.1c0.4-0.5,0.6-1.1,0.7-1.6
									c0-0.5-0.1-1-0.3-1.5s-0.5-0.9-0.9-1.4c-0.4-0.4-0.8-0.8-1.3-1.2L670,394L665.8,399.7z M657.6,410.4l5.2,3.9
									c0.4,0.3,0.9,0.6,1.5,0.9c0.5,0.2,1.1,0.4,1.6,0.4c0.6,0,1.1-0.1,1.6-0.3c0.5-0.2,1-0.6,1.4-1.2c0.5-0.6,0.7-1.2,0.7-1.8
									c0-0.6-0.2-1.2-0.5-1.7s-0.7-1.1-1.2-1.5c-0.5-0.5-1-0.9-1.4-1.2l-4.4-3.3L657.6,410.4z M667.9,385l9.8,7.3
									c1.1,0.8,2.2,1.8,3.2,2.8s1.8,2.1,2.4,3.3c0.5,1.2,0.8,2.4,0.7,3.7c-0.1,1.3-0.7,2.6-1.7,4.1c-1.1,1.5-2.5,2.4-4,2.7
									c-1.6,0.4-3.2,0.2-4.8-0.4l-0.1,0.1c0.8,0.8,1.4,1.6,1.8,2.5c0.4,0.9,0.7,1.8,0.8,2.7c0.1,0.9,0,1.9-0.3,2.8s-0.7,1.8-1.4,2.7
									c-1,1.4-2.2,2.3-3.5,2.8s-2.6,0.6-4,0.5s-2.7-0.5-4.1-1.2c-1.4-0.6-2.6-1.4-3.8-2.2l-10.7-8L667.9,385z M781.7,430.4l-5.8-4.3
									l3-3.9l16.1,12.1l-3,3.9l-5.8-4.4L773.8,450l-4.5-3.4L781.7,430.4z M768.2,421.8c0-0.7-0.2-1.4-0.7-2.1s-1-1.2-1.5-1.7
									c-0.3-0.2-0.7-0.5-1.1-0.6c-0.4-0.2-0.8-0.3-1.2-0.4s-0.8,0-1.2,0.1s-0.7,0.4-1,0.8c-0.5,0.6-0.6,1.2-0.4,1.9
									c0.2,0.7,0.6,1.4,1.1,2.1c0.5,0.8,1.1,1.5,1.7,2.4c0.6,0.8,1.1,1.7,1.5,2.7c0.4,0.9,0.5,1.9,0.5,3c-0.1,1-0.6,2.2-1.5,3.3
									c-0.9,1.1-1.8,1.9-2.9,2.5c-1.1,0.5-2.2,0.8-3.3,0.8s-2.3-0.2-3.4-0.6c-1.2-0.4-2.2-1.1-3.3-1.9c-1.3-1-2.4-2.1-3.2-3.4
									c-0.8-1.2-1.4-2.7-1.7-4.3l5.8-1.1c0,1,0.2,1.9,0.7,2.7c0.4,0.9,1,1.6,1.8,2.1c0.4,0.3,0.8,0.5,1.2,0.7s0.9,0.3,1.3,0.4
									c0.4,0,0.8,0,1.2-0.1s0.7-0.4,1-0.7c0.5-0.6,0.6-1.3,0.4-2c-0.2-0.7-0.6-1.4-1.1-2.2c-0.5-0.8-1.1-1.6-1.7-2.5
									c-0.6-0.9-1.1-1.8-1.5-2.7c-0.4-1-0.6-1.9-0.5-3c0-1,0.5-2.1,1.4-3.2c0.8-1.1,1.8-1.9,2.8-2.4c1.1-0.5,2.1-0.7,3.3-0.8
									c1.1,0,2.3,0.2,3.4,0.6c1.1,0.4,2.2,1,3.2,1.8c1.1,0.9,2.1,1.9,3,3c0.8,1.1,1.4,2.4,1.7,3.8L768.2,421.8z M741.9,403.5l-7.2,4.4
									l5,3.7L741.9,403.5z M744.7,396.4l3.7,2.8l-6.5,26.8l-5-3.8l1.5-5.6l-7.9-5.9l-4.9,3l-4.9-3.7L744.7,396.4z M717.7,376.1
									l13.8,10.4l-3.1,4.1l-9.3-7l-2.9,3.8l8.8,6.6l-3.1,4.1l-8.8-6.6l-3.1,4.1l9.8,7.4l-3.1,4.1l-14.3-10.7L717.7,376.1z"/>
								<path id="east_brooklyn_stroke" class="st6 area-stroke" d="M846.3,418.6c-0.9-2.3-2.5-4.6-3.5-6.7c-1.2-2.5-2.5-5.3-2.5-7.9
									c-0.2-3,1.2-5.3,1.1-8.3c-0.2-2.1-0.5-4.9-2.5-4.9c-0.4,0-0.7,0.2-1.2,0.5c-1.9,0.9-2.8,4.2-4.2,5.8c-1.1,1.2-1.9,1.6-2.5,1.6
									c-2.3,0-3.2-4.6-3.5-7.1c-0.2-2.8-1.4-8-1.4-8l-46.7-21.7c0,0-6.7-1.9-10.6-7.2c-3.8-5.3-8.7-13.5-15.4-11.6s-52.4,22.6-73.1,26
									c-17.1,2.8-27.3,4.1-53.4,2l-2.6-0.2c0,0,23.8,95.4,26.1,109.8l4.4,23.2l88.1,88.1c7,4.9,6.1,11.9,12.7,17.9
									c1.6,1.6,13.4,10.6,15.5,10.6h0.2c2.1-0.5,4.4-8.6,6.5-10.6c4.8-4.9,20.1-8.1,18.7-16.6c-1.1-6.2-8.6-10.8-12.7-15
									c-5.5-5.5-9.2-9.7-12.5-16.9c-1.9-4.6-6.2-11.1-5.3-16.2c0.4-0.2,0.9-0.2,1.2-0.2c5.6,0,12,6.9,14.8,10.8c1.9,2.6,3.3,6.3,6.9,6.7
									h0.7c2.5,0,4.4-1.9,6.5-3.2c5.5-3.4,9.5-6.2,9.3-12.9c-0.4-5.5-4.9-10.9-7.4-15.9h0.2c4,0,10,10.6,11.6,14.1
									c2.5,5.5,0,11.6,3.2,17.1c1.2,2.1,2.1,3.2,3,3.2c0.7,0,1.8-0.7,3.2-1.8c3-2.3,4.9-2.8,8.8-3.5c3.3-0.7,7.7-1.8,9.9-4.6
									c2.3-3.2,1.8-8.8,1.8-12.5c0-3.4-0.7-6.9-0.4-10.2c0.4-3.3,2.3-5.3,1.9-8.8c-0.7-7.2-5.1-17.6-11.1-22c-3.3-2.6-15-5.6-13.7-11.6
									h0.5c0.9,0,1.8,0.2,2.6,0.4c-1.2-3.5,1.1-7.4-3.2-9.5c-1.2-0.7-5.6-1.4-6.2-2.8c-0.7-1.8,2.8-3.7,4.1-4.1c2.5-1.1,5.3-1.1,7.7-2.3
									c2.1-1.1,3.5-3.4,5.5-4.8c1.8-1.2,3.3-2.3,5.3-2.3c0.2,0,0.5,0,0.9,0.2c1.4,0.2,2.3,0.5,3.5,0.5c0.5,0,1.1,0,1.9-0.4
									c5.5-2.1,3.5-8.5-0.4-11.1c-2.1-1.8-6-2.5-4.9-6c0.4-1.2,3.3-4.4,4.6-4.8h0.7c1.9,0,2.6,2.5,4.6,3.2c0.5,0.2,1.1,0.2,1.6,0.2
									c2.3,0,5.6-0.9,6.5-2.1c0.5-0.7,0.7-1.4,0.7-2.3v-0.4c0-4.4-4.8-10.9-5.1-14.5C847,424.2,847.2,421.4,846.3,418.6"/>
								<path id="lefferts_gardens_stroke" class="st6 area-stroke" d="M321.5,443l108.7-8l6.2,62.5l-116.6,14.1l0.1-6.9l-6.7,1.7l-3.9-49.2
									C309.2,453,314.2,443.6,321.5,443"/>
								<path id="east_flatbush_stroke" class="st6 area-stroke" d="M553.8,602.8l-3.6-32.6l52.2-51.3l-80.3-79.1l-19.1-0.7h-18l-51.2-4.7l-3.6,0.6
									l6.2,62.5l-42.6,6l8.5,105.6l22.1,28.5l112.8-8.2l-0.8-16.5L553.8,602.8z"/>
								<path id="bushwick_stroke" class="st6 area-stroke" d="M623.3,322.5H617l7.8-18.5l-3.5-3.1l3.5-13.8l10.7-12.5l1.9-6.3L620,255.7l7.2-10.2
									L593,218.7l3.9-7.3l-9.2-7.8l4.3-6.8L540.8,156L521,179.8l-38.6,18.4l-35.2,12.6L615,341.3l14.9-12.5L623.3,322.5z"/>
								<path id="brownsville_stroke" class="st6 area-stroke" d="M649.9,481.7C647.6,467,624.4,371,624.4,371s-11.7-2.8-18.6-3.6L552,357l-3.4,46.9
									l-8.6,6.8l-17.2-1.5l-0.8,30.5l81.4,80.2l41.1-41.1L649.9,481.7z"/>
								<path id="cypress_hills_stroke" class="st6 area-stroke" d="M820.3,349h-5.8l-2.4-18.8l-10.2,1l-15-83.5l-23.2,6.8L741,272.8l-10.7,5.8
									l-50.4,41l-8.7-9.6l-13,14l-21.9-29l3.9-1.9l-5.5-17.9l-9.9,12l-3.5,13.8l3.5,3.1l-7.8,18.5h6.3l6.7,6.3l-14.4,12L603,351.4
									l1,15.9c7,0.8,14.1,2.8,19.7,3.2l0,0c26.2,2.1,39.1,1,56.3-1.8c20.8-3.4,66.8-24.1,73.6-26.1c6.8-1.9,9.7,4.4,13.6,9.7
									c3.9,5.3,12.5,9.1,12.5,9.1l47,21.7L820.3,349z"/>
								<path id="canarsie_stroke" class="st6 area-stroke" d="M744.1,593.6l-89.3-89.7l-4.4-23.2l-5.9-1.3l-35.3,35.2l-4.4,4l-54.7,51.5l3.6,32.6
									L536.4,613l0.8,16.5l10.7-0.4l114.9,68c0.2-3.4,5.1-4.6,5.1-4.6c2.3-0.5,6.3-2.7,8.3-4.1c4-2.8,7.3-7.1,11-10.1
									c2.4-2,4.8-3.8,7.1-6c1.4-1.4,2.4-3.3,3.5-5.1c1.2-2,2.9-3.4,4.5-5.1c8.3-9.1,17.6,0.7,22.7-4.3c4.3-4.1-5.1-17,6.8-25.5
									c2.8-2,5.6-3.5,8-6c1.4-1.4,7.9-8.4,13-13.8c0.7-3.3-1.6-6.6-1.6-6.6L744.1,593.6z"/>
								<path id="all_stroke" class="st6 all-stroke" d="M847.3,427c-0.3-2.8-0.1-5.6-1-8.4c-0.9-2.3-2.5-4.6-3.5-6.7c-1.2-2.5-2.5-5.3-2.5-7.9
									c-0.2-3,1.2-5.3,1.1-8.3c-0.2-2.1-0.5-4.9-2.5-4.9c-0.4,0-0.7,0.2-1.2,0.5c-1.9,0.9-2.8,4.2-4.2,5.8c-1.1,1.2-1.9,1.6-2.5,1.6
									c-2.3,0-3.2-4.6-3.5-7.1c-0.2-2.8-1.4-8-1.4-8l-46.7-21.7c0,0-6.7-1.9-10.6-7.2c-3.8-5.3-8.7-13.5-15.4-11.6
									c-6.7,1.9-52.4,22.6-73.1,26c-17.1,2.8-27.3,4.1-53.4,2l-2.6-0.2c0,0,0,0,0,0.1c-0.3-0.1-1.7-0.4-3.6-0.8c1,0.1,2,0.3,2.9,0.3
									c26.2,2.1,39.1,1,56.3-1.8c20.8-3.4,66.8-24.1,73.6-26.1c6.8-1.9,9.7,4.4,13.6,9.7c3.9,5.3,12.5,9.1,12.5,9.1l47,21.7l-6.4-34.1
									h-5.8l-2.4-18.8l-10.2,1l-15-83.5l-23.2,6.8L741,272.8l-10.7,5.8l-50.4,41l-8.7-9.6l-13,14l-21.9-29l3.9-1.9l-5.4-17.7l0.7-0.8
									l1.9-6.3L620,255.7l7.2-10.2L593,218.7l3.9-7.3l-9.2-7.8l4.3-6.8L540.8,156L521,179.8l-38.6,18.4l-35.2,12.6L615,341.3l14.9-12.5
									l0.1,0.1l-14.4,12L603,351.4l1,15.6l-52-10l-3.4,46.9l-8.6,6.8l-17.2-1.5l-0.8,30.5l7.4,7.3l-7.3-7.2l-19.1-0.7h-18l-51.2-4.7
									l-3.6,0.6l-108.7,8c-7.3,0.6-12.3,10-12.2,14.2l3.9,49.2l6.7-1.7l-0.1,6.9l116.6-14.1l-42.6,6l8.5,105.6l22.1,28.5l112.8-8.2
									l0,0.1l10.7-0.4l114.9,68c0.2-3.4,5.1-4.6,5.1-4.6c2.3-0.5,6.3-2.7,8.3-4.1c4-2.8,7.3-7.1,11-10.1c2.4-2,4.8-3.8,7.1-6
									c1.4-1.4,2.4-3.3,3.5-5.1c1.2-2,2.9-3.4,4.5-5.1c8.3-9.1,17.6,0.7,22.7-4.3c4.3-4.1-5.1-17,6.8-25.5c2.8-2,5.6-3.5,8-6
									c1.4-1.4,7.9-8.4,13-13.8c0.7-3.3-1.6-6.6-1.6-6.6l-7.1-12.3l-89.3-89.7l88.1,88.1c7,4.9,6.1,11.9,12.7,17.9
									c1.6,1.6,13.4,10.6,15.5,10.6h0.2c2.1-0.5,4.4-8.6,6.5-10.6c4.8-4.9,20.1-8.1,18.7-16.6c-1.1-6.2-8.6-10.8-12.7-15
									c-5.5-5.5-9.2-9.7-12.5-16.9c-1.9-4.6-6.2-11.1-5.3-16.2c0.4-0.2,0.9-0.2,1.2-0.2c5.6,0,12,6.9,14.8,10.8c1.9,2.6,3.3,6.3,6.9,6.7
									h0.7c2.5,0,4.4-1.9,6.5-3.2c5.5-3.4,9.5-6.2,9.3-12.9c-0.4-5.5-4.9-10.9-7.4-15.9h0.2c4,0,10,10.6,11.6,14.1
									c2.5,5.5,0,11.6,3.2,17.1c1.2,2.1,2.1,3.2,3,3.2c0.7,0,1.8-0.7,3.2-1.8c3-2.3,4.9-2.8,8.8-3.5c3.3-0.7,7.7-1.8,9.9-4.6
									c2.3-3.2,1.8-8.8,1.8-12.5c0-3.4-0.7-6.9-0.4-10.2c0.4-3.3,2.3-5.3,1.9-8.8c-0.7-7.2-5.1-17.6-11.1-22c-3.3-2.6-15-5.6-13.7-11.6
									h0.5c0.9,0,1.8,0.2,2.6,0.4c-1.2-3.5,1.1-7.4-3.2-9.5c-1.2-0.7-5.6-1.4-6.2-2.8c-0.7-1.8,2.8-3.7,4.1-4.1c2.5-1.1,5.3-1.1,7.7-2.3
									c2.1-1.1,3.5-3.4,5.5-4.8c1.8-1.2,3.3-2.3,5.3-2.3c0.2,0,0.5,0,0.9,0.2c1.4,0.2,2.3,0.5,3.5,0.5c0.5,0,1.1,0,1.9-0.4
									c5.5-2.1,3.5-8.5-0.4-11.1c-2.1-1.8-6-2.5-4.9-6c0.4-1.2,3.3-4.4,4.6-4.8h0.7c1.9,0,2.6,2.5,4.6,3.2c0.5,0.2,1.1,0.2,1.6,0.2
									c2.3,0,5.6-0.9,6.5-2.1c0.5-0.7,0.7-1.4,0.7-2.3v-0.4C852.4,437.1,847.6,430.6,847.3,427z M617,322.5L617,322.5l7.7-18.4l0,0
									L617,322.5z M624.8,287.2l-3.5,13.7l0,0l3.5-13.8l2.3-2.7L624.8,287.2z M536.4,613L536.4,613l6.7-4L536.4,613z M609.2,514.6
									l-4.4,4l-49.9,47l48.5-45.7l41.1-41.1L609.2,514.6z M649.7,480.5c-2.5-14.3-17.2-75.8-23-99.9 M634.8,275.4l-7.7,9 M621.3,300.9
									l3.5,3.2 M617,322.5h6.3l6.7,6.4 M604,367l16.8,3.1 M624.3,371l2.4,9.7 M656.4,505.5l-1.6-1.6l-5.1-23.4 M643.4,479.9l1.1-1.1
									l5.1,1.2 M554.9,565.6l-4.8,4.5l3.6,32.2l-12.2,7.9 M536.4,613l0.8,16.5 M430.2,435l6.2,62.5L432,498 M529.4,447l74,72.9"/>


							</g>
						</g>
						<g>
							<rect id="logo_hover" x="77.9" y="132.6" class="st1" width="254.5" height="84.5"/>
							<path id="logo" class="st7" d="M197,164.1c0,1.7,0,3.2,0.1,4.6c0.1,1.4,0.3,2.6,0.7,3.5c0.4,1,1,1.7,1.8,2.2s1.9,0.8,3.2,0.8
								c1.4,0,2.5-0.3,3.3-0.9c0.8-0.6,1.5-1.3,2-2.3c0.5-0.9,0.8-2,0.9-3.1c0.2-1.1,0.2-2.2,0.2-3.3c0-1.3,0-2.4-0.1-3.3
								s-0.1-1.7-0.3-2.5c-0.1-0.7-0.3-1.3-0.5-1.9c-0.2-0.5-0.5-1-0.8-1.5c-0.5-0.6-1.1-1.2-1.9-1.6c-0.8-0.4-1.8-0.6-3-0.6
								s-2.1,0.2-2.8,0.7s-1.3,1.1-1.7,2c-0.4,0.8-0.7,1.9-0.9,3C197.1,161.2,197,162.6,197,164.1L197,164.1z M205.6,140.1h8.1v34.5h3.8
								v0.7h-8V171h-0.1c-0.1,0.4-0.3,0.9-0.6,1.4c-0.3,0.6-0.7,1.1-1.2,1.6s-1.2,1-1.9,1.3c-0.8,0.4-1.7,0.6-2.8,0.6
								c-1.5,0-2.8-0.3-4.1-0.9c-1.3-0.6-2.4-1.4-3.4-2.5c-1-1-1.8-2.2-2.3-3.6c-0.6-1.3-0.9-2.8-0.9-4.3s0.3-2.9,0.8-4.2
								c0.6-1.3,1.3-2.5,2.3-3.5s2.1-1.8,3.3-2.4c1.3-0.6,2.6-0.9,4-0.9c1.8,0,3.3,0.4,4.4,1.3c1.1,0.9,1.9,2,2.4,3.2h0.1v-17.5h-3.8v-0.5
								H205.6z M163,175.2h11.9v-0.7h-3.8v-11c0-1.3,0.2-2.5,0.6-3.6c0.4-1.1,1-2.1,1.7-2.9s1.6-1.4,2.5-1.9c1-0.5,2-0.7,3-0.7
								c1.3,0,2.2,0.4,2.8,1.2s0.9,1.9,0.9,3.1v15.7h-3.8v0.7h11.9v-0.7h-3.8v-14.2c0-2.3-0.7-3.9-2.1-5c-1.4-1-3.1-1.6-5.3-1.6
								c-1.4,0-2.6,0.2-3.6,0.7c-1,0.4-1.8,1-2.5,1.6s-1.2,1.3-1.6,1.9c-0.4,0.7-0.7,1.2-0.9,1.6h0.1v-5.2h-8v0.7h3.8v19.5H163V175.2z
								 M141.5,169.7c-0.1,0.4-0.3,0.9-0.6,1.5s-0.7,1.2-1.2,1.8s-1.3,1.1-2.2,1.5s-2.1,0.6-3.6,0.6c-1.4,0-2.4-0.3-3.3-0.8
								c-0.8-0.5-1.5-1.3-2-2.2s-0.8-2-1-3.2s-0.3-2.6-0.3-3.9c0-2.5,0.2-4.4,0.6-5.8c0.4-1.4,0.9-2.5,1.6-3.2c0.6-0.7,1.4-1.2,2.1-1.3
								c0.8-0.2,1.5-0.3,2.2-0.3c1,0,1.9,0.2,2.6,0.6c0.8,0.4,1.1,1,1.1,1.7c0,0.4-0.1,1-0.3,1.6c-0.2,0.7-0.3,1.2-0.3,1.7
								c0,0.6,0.3,1,0.8,1.2s1,0.4,1.6,0.4c0.8,0,1.5-0.2,1.9-0.7c0.4-0.4,0.7-1,0.7-1.7c0-1-0.3-1.9-0.8-2.6c-0.5-0.7-1.2-1.3-1.9-1.7
								c-0.8-0.4-1.6-0.8-2.6-1c-0.9-0.2-1.9-0.3-2.7-0.3c-1.6,0-3.1,0.3-4.5,0.9c-1.4,0.6-2.6,1.4-3.7,2.4c-1,1-1.9,2.2-2.5,3.6
								c-0.6,1.4-0.9,2.8-0.9,4.4c0,2,0.4,3.8,1.1,5.2s1.6,2.5,2.7,3.4s2.4,1.5,3.7,1.9c1.4,0.4,2.7,0.6,3.9,0.6c1.6,0,3-0.3,4-0.8
								s1.9-1.1,2.5-1.8s1.1-1.3,1.3-2c0.3-0.7,0.5-1.2,0.6-1.5L141.5,169.7z M103.1,175.2h0.5c0.1-0.2,0.2-0.3,0.4-0.5
								c0.2-0.1,0.4-0.2,0.8-0.2s0.8,0.1,1.2,0.2c0.4,0.1,0.9,0.3,1.4,0.5s1.1,0.3,1.7,0.5c0.6,0.1,1.3,0.2,2,0.2c1.3,0,2.4-0.2,3.3-0.6
								c1-0.4,1.8-0.9,2.5-1.5s1.2-1.4,1.5-2.2s0.5-1.7,0.5-2.6c0-1.5-0.5-2.7-1.5-3.6c-1-0.9-2.3-1.6-3.8-2.1l-3.6-1.2
								c-1.5-0.5-2.5-1-3.3-1.5c-0.7-0.5-1.1-1.3-1.1-2.4c0-1.2,0.4-2.1,1.3-2.8s2.1-1,3.7-1c0.8,0,1.5,0.1,2.2,0.4
								c0.6,0.3,1.1,0.7,1.5,1.2s0.8,1.1,1.1,1.8c0.3,0.7,0.6,1.4,0.8,2.1h0.5v-5.6h-0.5c-0.2,0.3-0.4,0.4-0.8,0.4s-0.7-0.1-0.9-0.2
								c-0.3-0.1-0.6-0.2-0.9-0.3s-0.7-0.2-1.2-0.3c-0.4-0.1-1-0.2-1.8-0.2c-1,0-2,0.2-2.8,0.5c-0.9,0.3-1.6,0.8-2.2,1.4
								c-0.6,0.6-1.1,1.3-1.5,2c-0.4,0.8-0.5,1.6-0.5,2.5c0,1.1,0.2,2,0.5,2.6c0.3,0.7,0.7,1.2,1.2,1.7c0.5,0.4,1,0.8,1.6,1
								s1.1,0.4,1.6,0.6l3.9,1.3c0.9,0.3,1.6,0.7,2.2,1.2s1,1.4,1,2.6c0,1.4-0.4,2.5-1.2,3.1c-0.8,0.6-1.8,1-2.8,1c-1.3,0-2.3-0.2-3.2-0.6
								c-0.9-0.4-1.6-1-2.2-1.6c-0.6-0.7-1.1-1.4-1.5-2.2s-0.7-1.6-0.9-2.4h-0.5v6.8H103.1z M91.6,163.3L91.6,163.3
								c-0.2,0.4-0.7,0.8-1.7,1.3l-3.7,1.5c-1.1,0.4-1.9,1-2.4,1.8c-0.6,0.8-0.8,1.7-0.8,2.9c0,0.5,0,1,0.1,1.5s0.3,1,0.5,1.4
								c0.3,0.4,0.6,0.7,1.1,1s1.1,0.4,1.9,0.4c1.1,0,2-0.2,2.6-0.7c0.7-0.5,1.2-1,1.5-1.7s0.6-1.4,0.7-2.2s0.2-1.5,0.2-2.2
								C91.6,168.3,91.6,163.3,91.6,163.3z M100.2,174.7c-0.4,0.3-0.9,0.6-1.5,0.9c-0.6,0.2-1.3,0.4-2.2,0.4c-1.6,0-2.7-0.3-3.4-1
								c-0.7-0.7-1.2-1.6-1.5-2.8h-0.1c-0.1,0.3-0.3,0.7-0.5,1.1c-0.2,0.4-0.6,0.9-1.1,1.3c-0.5,0.4-1.1,0.7-1.9,1s-1.8,0.4-3,0.4
								c-1.4,0-2.5-0.2-3.3-0.5s-1.5-0.7-1.9-1.1c-0.5-0.5-0.8-1-0.9-1.5c-0.1-0.6-0.2-1.1-0.2-1.6c0-1.1,0.2-2,0.7-2.7s1.1-1.2,1.8-1.6
								c0.7-0.4,1.6-0.7,2.5-1s1.8-0.5,2.7-0.8c1.1-0.4,2-0.7,2.7-0.9c0.7-0.3,1.3-0.6,1.7-1c0.4-0.4,0.7-0.8,0.8-1.4
								c0.1-0.6,0.2-1.3,0.2-2.3c0-0.8,0-1.5-0.1-2.1s-0.3-1.1-0.5-1.6c-0.3-0.4-0.6-0.8-1.1-1s-1.2-0.3-2-0.3c-1.1,0-2,0.2-2.7,0.6
								c-0.7,0.4-1.1,1-1.1,1.8c0,0.6,0,1.1,0.1,1.6s0.1,0.9,0.1,1.2c0,0.5-0.2,0.8-0.5,1.1s-0.8,0.5-1.4,0.5c-1.1,0-1.8-0.2-2-0.6
								c-0.3-0.4-0.4-0.9-0.4-1.5c0-0.7,0.2-1.4,0.5-2s0.8-1.2,1.5-1.7c0.6-0.5,1.4-0.9,2.4-1.2s2.1-0.4,3.3-0.4c1.5,0,2.8,0.2,3.8,0.6
								c1,0.4,1.8,0.9,2.5,1.5c0.6,0.6,1.1,1.3,1.3,2.1c0.3,0.8,0.4,1.6,0.4,2.5v12.1c0,0.9,0.1,1.6,0.4,1.9c0.3,0.3,0.7,0.5,1.3,0.5
								c0.4,0,0.7-0.1,1.1-0.2c0.4-0.1,0.8-0.3,1.1-0.6L100.2,174.7z M234.8,165.7h3l4.2,6.8l0,0v-6.8h2.2v9.8h-2.9l-4.3-7l0,0v7h-2.2
								V165.7z M228.5,175.4h2.2v-9.8h-2.2V175.4z M307.1,188.9h6l8.5,13.6h0.1v-13.6h4.4v19.6h-5.7l-8.7-14h-0.1v14h-4.4L307.1,188.9
								L307.1,188.9z M290.1,200.2l-7.5-11.3h5.5l4.2,7.3l4.5-7.3h5.2l-7.5,11.3v8.4h-4.4L290.1,200.2L290.1,200.2z M268.8,188.9h4.4v15.6
								h8.1v4h-12.5V188.9z M244.3,188.9h4.4v8.2l7.7-8.2h5.7l-8.9,9.1l9.6,10.5h-6.1l-8.1-9.3v9.3h-4.4L244.3,188.9L244.3,188.9z
								 M220.6,198.7c0,0.9,0.1,1.8,0.4,2.5c0.3,0.8,0.7,1.4,1.3,2s1.2,1,2,1.3s1.6,0.5,2.5,0.5s1.8-0.2,2.5-0.5c0.8-0.3,1.4-0.8,2-1.3
								c0.5-0.6,1-1.2,1.3-2s0.4-1.6,0.4-2.5s-0.1-1.7-0.4-2.5c-0.3-0.8-0.7-1.4-1.3-2c-0.5-0.6-1.2-1-2-1.3s-1.6-0.5-2.5-0.5
								s-1.8,0.2-2.5,0.5c-0.8,0.3-1.4,0.8-2,1.3c-0.5,0.6-1,1.2-1.3,2S220.6,197.8,220.6,198.7L220.6,198.7z M216,198.7
								c0-1.6,0.3-3,0.8-4.3s1.3-2.4,2.2-3.3c1-0.9,2.1-1.6,3.4-2.1c1.3-0.5,2.7-0.7,4.3-0.7s3,0.2,4.3,0.7s2.4,1.2,3.4,2.1
								c1,0.9,1.7,2,2.2,3.3s0.8,2.7,0.8,4.3s-0.3,3-0.8,4.3s-1.3,2.4-2.2,3.3c-1,0.9-2.1,1.6-3.4,2.1c-1.3,0.5-2.7,0.7-4.3,0.7
								s-3-0.2-4.3-0.7s-2.4-1.2-3.4-2.1c-1-0.9-1.7-2-2.2-3.3S216,200.3,216,198.7L216,198.7z M193.5,198.7c0,0.9,0.1,1.8,0.4,2.5
								c0.3,0.8,0.7,1.4,1.3,2c0.5,0.6,1.2,1,2,1.3s1.6,0.5,2.5,0.5s1.8-0.2,2.5-0.5c0.8-0.3,1.4-0.8,2-1.3c0.5-0.6,1-1.2,1.3-2
								s0.4-1.6,0.4-2.5s-0.1-1.7-0.4-2.5c-0.3-0.8-0.7-1.4-1.3-2c-0.5-0.6-1.2-1-2-1.3s-1.6-0.5-2.5-0.5s-1.8,0.2-2.5,0.5
								c-0.8,0.3-1.4,0.8-2,1.3c-0.5,0.6-1,1.2-1.3,2C193.7,197,193.5,197.8,193.5,198.7L193.5,198.7z M189,198.7c0-1.6,0.3-3,0.8-4.3
								s1.3-2.4,2.2-3.3c1-0.9,2.1-1.6,3.4-2.1c1.3-0.5,2.7-0.7,4.3-0.7s3,0.2,4.3,0.7s2.4,1.2,3.4,2.1c1,0.9,1.7,2,2.2,3.3
								s0.8,2.7,0.8,4.3s-0.3,3-0.8,4.3s-1.3,2.4-2.2,3.3c-1,0.9-2.1,1.6-3.4,2.1c-1.3,0.5-2.7,0.7-4.3,0.7s-3-0.2-4.3-0.7
								s-2.4-1.2-3.4-2.1c-1-0.9-1.7-2-2.2-3.3C189.2,201.7,189,200.3,189,198.7L189,198.7z M172.2,197h2.6c0.4,0,0.8,0,1.3,0
								c0.4,0,0.8-0.1,1.2-0.3c0.4-0.1,0.7-0.4,0.9-0.7s0.4-0.7,0.4-1.2s-0.1-0.9-0.3-1.2s-0.5-0.5-0.8-0.7s-0.7-0.3-1.1-0.3
								c-0.4-0.1-0.8-0.1-1.2-0.1h-2.9L172.2,197L172.2,197z M167.8,188.9h7.7c1,0,2,0.1,2.9,0.3s1.7,0.5,2.4,1s1.2,1.1,1.6,1.8
								c0.4,0.8,0.6,1.7,0.6,2.9c0,1.4-0.4,2.6-1.1,3.5c-0.7,1-1.8,1.6-3.2,1.8l5.1,8.3h-5.3l-4.2-7.8h-2.2v7.8h-4.4L167.8,188.9
								L167.8,188.9z M149.6,204.9h3.9c0.3,0,0.7,0,1-0.1s0.7-0.2,0.9-0.4c0.3-0.2,0.5-0.4,0.7-0.7s0.3-0.7,0.3-1.1c0-0.5-0.1-0.8-0.4-1.1
								c-0.2-0.3-0.5-0.5-0.9-0.7c-0.4-0.1-0.7-0.3-1.2-0.3c-0.4-0.1-0.8-0.1-1.2-0.1h-3.3v4.5H149.6z M149.6,196.8h3.2c0.3,0,0.7,0,1-0.1
								s0.6-0.2,0.9-0.4c0.3-0.2,0.5-0.4,0.6-0.7c0.2-0.3,0.2-0.6,0.2-1s-0.1-0.7-0.3-1s-0.4-0.5-0.7-0.6s-0.6-0.3-1-0.3
								c-0.4-0.1-0.7-0.1-1-0.1h-3v4.2H149.6z M145.3,188.9h7.4c0.9,0,1.7,0.1,2.6,0.2c0.9,0.1,1.7,0.4,2.3,0.7c0.7,0.4,1.3,0.9,1.7,1.5
								s0.6,1.5,0.6,2.6s-0.3,2-0.9,2.8c-0.6,0.7-1.5,1.3-2.5,1.6v0.1c0.7,0.1,1.3,0.3,1.8,0.5c0.5,0.3,1,0.6,1.4,1s0.7,0.9,0.9,1.5
								s0.3,1.1,0.3,1.8c0,1-0.2,1.9-0.7,2.6c-0.4,0.7-1,1.3-1.7,1.7s-1.5,0.7-2.4,0.9s-1.8,0.3-2.7,0.3h-8.2L145.3,188.9L145.3,188.9z"/>
							<path id="logo_accent" class="st8" d="M160.8,143c0-0.7-0.2-1.3-0.5-1.6c-0.3-0.4-0.8-0.5-1.3-0.5c-0.9,0-1.6,0.3-2.4,0.9
								c-0.7,0.6-1.4,1.3-2,2.2s-1.1,1.9-1.6,2.9s-0.8,2-1.1,2.8c0.2,0,0.4,0.1,0.7,0.1s0.5,0,0.8,0c1.1,0,2.1-0.2,3-0.5s1.7-0.8,2.4-1.4
								c0.7-0.6,1.2-1.3,1.5-2.1C160.6,144.8,160.8,143.9,160.8,143L160.8,143z M162.5,157c-0.2,0.2-0.5,0.7-0.9,1.3s-1,1.3-1.8,1.9
								c-0.8,0.6-1.7,1.2-2.7,1.7c-1.1,0.5-2.3,0.7-3.8,0.7c-1.2,0-2.4-0.2-3.3-0.6c-1-0.4-1.8-0.9-2.5-1.6s-1.2-1.5-1.6-2.4
								c-0.4-0.9-0.6-2-0.6-3.1c0-1.5,0.4-3.1,1.2-4.8s1.8-3.4,3.1-4.8c1.3-1.5,2.8-2.7,4.4-3.7c1.7-1,3.4-1.5,5.3-1.5
								c0.9,0,1.7,0.1,2.5,0.2c0.8,0.2,1.4,0.4,2,0.8c0.6,0.3,1,0.8,1.3,1.3s0.5,1.1,0.5,1.8c0,0.9-0.2,1.7-0.7,2.3
								c-0.5,0.7-1,1.2-1.8,1.7c-0.7,0.5-1.5,0.8-2.4,1.1s-1.8,0.5-2.7,0.7s-1.7,0.3-2.4,0.3c-0.8,0.1-1.3,0.1-1.8,0.1h-1
								c-0.3,0-0.7,0-1.1-0.1c-0.4,1.1-0.7,2.2-1,3.4s-0.4,2.5-0.4,3.7c0,1.6,0.3,2.8,1,3.4c0.7,0.6,1.6,1,2.7,1c1.1,0,2.1-0.2,2.9-0.6
								c0.9-0.4,1.6-0.9,2.3-1.5s1.2-1.1,1.6-1.7c0.4-0.6,0.8-1,1-1.4L162.5,157z"/>
						</g>
						</svg>